<?xml version="1.0" standalone="no"?><!DOCTYPE svg PUBLIC "-//W3C//DTD SVG 1.1//EN" "http://www.w3.org/Graphics/SVG/1.1/DTD/svg11.dtd"><svg t="1589011907273" class="icon" viewBox="0 0 1024 1024" version="1.1" xmlns="http://www.w3.org/2000/svg" p-id="9955" xmlns:xlink="http://www.w3.org/1999/xlink" width="128" height="128"><defs><style type="text/css"></style></defs><path d="M933.572 251.436L529.676 18.35a33.052 33.052 0 0 0-33.14 0L92.64 251.436a33.232 33.232 0 0 0-16.57 28.722v466.31a33.228 33.228 0 0 0 16.57 28.722l403.896 233.224c5.11 2.9 10.908 4.418 16.568 4.418s11.462-1.518 16.568-4.418l403.896-233.224a33.23 33.23 0 0 0 16.568-28.722V280.158a33.23 33.23 0 0 0-16.568-28.722zM883.86 727.41L513.106 941.44 142.352 727.41v-428.06L513.106 85.32 883.86 299.35v428.06z" p-id="9956"></path><path d="M236.8 365.768c-9.114 15.88-3.728 36.178 12.152 45.292l230.6 133.114V807.5c0 18.366 14.774 33.14 33.14 33.14s33.14-14.774 33.14-33.14V544.588l231.428-133.664c15.88-9.114 21.264-29.414 12.154-45.292s-29.414-21.264-45.292-12.154l-231.014 133.39-231.014-133.39c-15.88-9.114-36.04-3.59-45.292 12.288z" p-id="9957"></path></svg>