<?xml version="1.0" standalone="no"?><!DOCTYPE svg PUBLIC "-//W3C//DTD SVG 1.1//EN" "http://www.w3.org/Graphics/SVG/1.1/DTD/svg11.dtd"><svg t="1558602355212" class="icon" style="" viewBox="0 0 1024 1024" version="1.1" xmlns="http://www.w3.org/2000/svg" p-id="15877" xmlns:xlink="http://www.w3.org/1999/xlink" width="200" height="200"><defs><style type="text/css"></style></defs><path d="M291 485.7c-51.6 0-100.3-20.2-137-57-36.7-36.7-57-85.4-57-137s20.2-100.3 57-137c36.7-36.7 85.4-57 137-57 51.6 0 100.3 20.2 137 57 36.7 36.7 57 85.4 57 137s-20.2 100.3-57 137c-36.7 36.8-85.3 57-137 57z m0-340c-80.5 0-146 65.5-146 146s65.5 146 146 146 146-65.5 146-146-65.5-146-146-146zM291 927.7c-51.6 0-100.3-20.2-137-57-36.7-36.7-57-85.4-57-137s20.2-100.3 57-137 85.4-57 137-57c51.6 0 100.3 20.2 137 57s57 85.4 57 137c0 51.6-20.2 100.3-57 137-36.7 36.8-85.3 57-137 57z m0-340c-80.5 0-146 65.5-146 146s65.5 146 146 146 146-65.5 146-146-65.5-146-146-146zM803 927.7H663c-68.4 0-124-55.6-124-124v-140c0-13.3 10.7-24 24-24s24 10.7 24 24v140c0 41.9 34.1 76 76 76h140c41.9 0 76-34.1 76-76v-140c0-41.9-34.1-76-76-76H663c-13.3 0-24-10.7-24-24s10.7-24 24-24h140c68.4 0 124 55.6 124 124v140c0 68.4-55.6 124-124 124zM733 485.7c-51.6 0-100.3-20.2-137-57-36.7-36.7-57-85.4-57-137s20.2-100.3 57-137c36.7-36.7 85.4-57 137-57s100.3 20.2 137 57 57 85.4 57 137-20.2 100.3-57 137-85.3 57-137 57z m0-340c-80.5 0-146 65.5-146 146s65.5 146 146 146 146-65.5 146-146-65.5-146-146-146z" p-id="15878"></path></svg>