<?xml version="1.0" standalone="no"?><!DOCTYPE svg PUBLIC "-//W3C//DTD SVG 1.1//EN" "http://www.w3.org/Graphics/SVG/1.1/DTD/svg11.dtd"><svg t="1589878625102" class="icon" viewBox="0 0 1170 1024" version="1.1" xmlns="http://www.w3.org/2000/svg" p-id="1980" xmlns:xlink="http://www.w3.org/1999/xlink" width="146.25" height="128"><defs><style type="text/css"></style></defs><path d="M48.786286 277.065143v508.269714c0 36.571429 37.156571 66.267429 82.870857 66.267429h165.888v110.445714c0 12.288 17.115429 24.429714 32.402286 24.429714l0.804571 0.073143c8.850286 1.024 21.796571-4.096 28.525714-9.362286l157.037715-125.586285h389.339428c45.787429 0 82.944-29.696 82.944-66.267429v-508.342857c0-36.571429-37.156571-66.194286-82.944-66.194286H131.657143c-45.714286 0-82.870857 29.622857-82.870857 66.267429z m55.296 22.089143c0-24.356571 24.722286-44.178286 55.222857-44.178286h718.701714c30.500571 0 55.222857 19.748571 55.222857 44.178286v464.091428c0 24.356571-24.722286 44.178286-55.222857 44.178286h-384c-2.194286 0.950857-7.533714 5.558857-9.435428 7.021714l-131.730286 105.325715v-90.258286c0-12.214857-12.434286-22.089143-27.648-22.089143H159.305143c-30.500571 0-55.222857-19.748571-55.222857-44.178286V299.154286zM1061.741714 25.307429H287.744c-45.787429 0-82.870857 29.622857-82.870857 66.267428v64.585143c7.606857-1.828571 15.36-2.852571 23.186286-2.852571h32.036571v-39.643429c0-24.356571 24.795429-44.178286 55.296-44.178286h718.701714c30.500571 0 55.222857 19.748571 55.222857 44.178286V577.828571c0 24.283429-24.576 44.032-54.857142 44.178286v44.178286h27.209142c45.787429 0 82.944-29.696 82.944-66.267429V91.428571c0-36.571429-37.156571-66.194286-82.870857-66.194285z m-101.522285 943.396571c-1.243429 0.512-2.633143 0.292571-3.949715 0.658286-1.974857 1.682286 14.921143 5.997714 3.949715-0.731429zM273.846857 528.603429a49.005714 49.005714 0 1 0 97.865143 0 49.005714 49.005714 0 0 0-97.865143 0z m195.876572 0a49.005714 49.005714 0 1 0 97.938285 0 49.005714 49.005714 0 0 0-98.011428 0z m195.876571 0a49.005714 49.005714 0 1 0 97.865143 0 49.005714 49.005714 0 0 0-97.865143 0z" p-id="1981"></path></svg>