<?xml version="1.0" standalone="no"?><!DOCTYPE svg PUBLIC "-//W3C//DTD SVG 1.1//EN" "http://www.w3.org/Graphics/SVG/1.1/DTD/svg11.dtd"><svg t="1590227787005" class="icon" viewBox="0 0 1024 1024" version="1.1" xmlns="http://www.w3.org/2000/svg" p-id="8252" xmlns:xlink="http://www.w3.org/1999/xlink" width="128" height="128"><defs><style type="text/css"></style></defs><path d="M512 512m-336 0a336 336 0 1 0 672 0 336 336 0 1 0-672 0Z" fill="#AA494A" p-id="8253"></path><path d="M512 512m-304 0a304 304 0 1 0 608 0 304 304 0 1 0-608 0Z" fill="#D36767" p-id="8254"></path><path d="M496 112h32v128h-32zM334.688 153.088l29.248-13.008L416 257.04l-29.248 13.008zM263.936 197.792l25.888-18.816 75.264 103.568-25.888 18.816zM157.584 325.872l16-27.712 110.848 64-16 27.712zM112.496 486.112l3.36-31.824 127.296 13.376-3.344 31.84zM112.512 537.872l127.312-13.376 3.344 31.84-127.312 13.36zM157.568 698.16l110.88-64 15.984 27.728-110.864 64zM263.936 826.176l75.248-103.568 25.888 18.816-75.248 103.568zM334.64 870.912l52.064-116.928 29.232 13.008-52.064 116.944zM496 784h32v128h-32zM608.032 767.024l29.232-13.024 52.064 116.96-29.232 13.008zM658.992 741.44l25.888-18.816 75.264 103.568-25.888 18.816zM739.552 661.872l16-27.712 110.848 64-16 27.712zM780.832 556.384l3.344-31.84 127.312 13.392-3.344 31.824zM780.832 467.632l127.312-13.376 3.344 31.824-127.312 13.376zM739.584 362.16l110.864-64 16 27.728-110.88 64zM658.912 282.528l75.248-103.568 25.888 18.816-75.248 103.568zM608 257.04l52.048-116.96 29.232 13.024-52.064 116.944z" fill="#3A4249" p-id="8255"></path><path d="M704 512a16 16 0 0 1-14.608-9.456c-7.568-16.896 4.128-32.272 12.672-43.504 3.28-4.304 10.08-13.28 9.856-16.24-2.176-0.544-12.48 2.464-17.968 4.048-13.312 3.84-31.52 9.056-43.648-4.16-12.256-11.808-6.656-29.376-2.144-43.52 1.408-4.384 3.808-11.904 4.096-16.016-3.04 1.776-9.536 6.88-13.28 9.808-11.584 9.088-26.016 20.368-41.936 12.592-15.68-6.624-16.336-25.024-16.848-39.824-0.144-4.288-0.4-11.456-1.328-15.552-2.112 2.976-6.08 9.424-8.432 13.248-7.728 12.576-17.312 28.288-35.024 26.272-16.928-0.944-23.744-18.016-29.232-31.744-1.6-4.016-4.304-10.752-6.592-14.32-0.912 3.472-2.432 10.752-3.328 15.072-3.024 14.48-6.784 32.512-24.224 36.528-16.176 4.784-28.368-8.992-38.208-20-2.976-3.328-8-8.992-11.424-11.504 0.24 3.552 1.296 11.12 1.92 15.568 2.048 14.672 4.624 32.96-10.368 42.816-13.536 10.112-29.76 1.696-42.784-5.04-4.32-2.24-11.856-6.144-15.792-6.896 0.752 3.456 4.816 11.264 7.136 15.68 6.88 13.168 15.424 29.568 5.008 44.416-8.928 14.592-27.728 13.312-41.44 12.368-6.48-0.448-18.576-1.264-19.808 1.488a16 16 0 0 1-29.216-13.056c10.336-23.168 35.904-21.424 51.216-20.368 3.312 0.224 7.76 0.528 10.992 0.448a142.336 142.336 0 0 0-5.104-10.512c-7.408-14.208-18.608-35.664-2.448-53.264 18.032-17.504 40.672-5.76 54.192 1.248 2.32 1.2 5.232 2.704 7.84 3.92a199.2 199.2 0 0 0-1.088-8.832c-2.224-15.92-5.6-39.984 15.648-50.416 22.496-9.616 38.72 8.576 49.44 20.608 1.6 1.792 3.6 4.032 5.488 6 0.64-2.592 1.248-5.472 1.728-7.792 3.088-14.768 8.256-39.504 31.712-42.08 24.144-1.52 33.296 21.072 39.248 36 0.864 2.176 1.952 4.88 3.024 7.312 1.488-2.224 3.008-4.72 4.256-6.736 8.432-13.696 21.232-34.352 44.08-29.088 23.504 6.704 24.384 31.968 24.912 47.056 0.08 2.448 0.192 5.504 0.4 8.256 2.256-1.632 4.688-3.536 6.64-5.072 12.736-9.984 31.984-25.072 51.888-11.968 19.808 14.64 12.432 37.76 7.552 53.072a156.528 156.528 0 0 0-2.88 9.68 171.2 171.2 0 0 0 9.328-2.496c14.672-4.224 39.264-11.312 53.424 8.96 13.264 21.424-1.328 40.64-10.992 53.344-2.784 3.664-7.312 9.616-8.368 12.512a16 16 0 0 1-8.624 19.696 15.52 15.52 0 0 1-6.56 1.44z" fill="#F2DAAE" p-id="8256"></path><path d="M512 80m-48 0a48 48 0 1 0 96 0 48 48 0 1 0-96 0Z" fill="#62C4C3" p-id="8257"></path><path d="M137.872 296m-48 0a48 48 0 1 0 96 0 48 48 0 1 0-96 0Z" fill="#62C4C3" p-id="8258"></path><path d="M113.872 686.432a48.016 48.016 0 0 0 48 83.136 48.016 48.016 0 0 0-48-83.136z" fill="#62C4C3" p-id="8259"></path><path d="M512 944m-48 0a48 48 0 1 0 96 0 48 48 0 1 0-96 0Z" fill="#62C4C3" p-id="8260"></path><path d="M910.128 686.432a48.016 48.016 0 0 0-48 83.136 48.016 48.016 0 0 0 48-83.136z" fill="#62C4C3" p-id="8261"></path><path d="M886.128 296m-48 0a48 48 0 1 0 96 0 48 48 0 1 0-96 0Z" fill="#62C4C3" p-id="8262"></path></svg>