<?xml version="1.0" standalone="no"?><!DOCTYPE svg PUBLIC "-//W3C//DTD SVG 1.1//EN" "http://www.w3.org/Graphics/SVG/1.1/DTD/svg11.dtd"><svg t="1589857464109" class="icon" viewBox="0 0 1024 1024" version="1.1" xmlns="http://www.w3.org/2000/svg" p-id="2688" xmlns:xlink="http://www.w3.org/1999/xlink" width="128" height="128"><defs><style type="text/css"></style></defs><path d="M864.1 201.9H159.9c-52.9 0-95.9 43-95.9 95.9v428.4c0 52.9 43 95.9 95.9 95.9H864c52.9 0 96-43 96-95.9V297.8c0-52.9-43-95.9-95.9-95.9z m-754.9 83.3c5.8-23.4 26.7-39.8 50.7-39.8h704.2c24 0 44.9 16.4 50.7 39.8l0.8 3.4-2.6 2.3-342.3 297.6c-16.2 14.1-37 21.8-58.7 21.8-21.7 0-42.5-7.8-58.7-21.8L111 290.8l-2.6-2.3 0.8-3.3zM916.5 358v368.3c0 28.9-23.5 52.4-52.4 52.4H159.9c-28.9 0-52.4-23.5-52.4-52.4V345.6l9.3 8.1 204.6 177.9 4.9 4.3-4.9 4.3-171.8 149.5c-9.1 7.9-10 21.7-2.1 30.7 4.1 4.8 10.1 7.5 16.4 7.5 5.2 0 10.3-1.9 14.3-5.3L355.9 568l3.7-3.2 3.7 3.2 61.4 53.4c24 20.9 55 32.4 87.3 32.4s63.3-11.5 87.3-32.4l61.4-53.4 3.7-3.2 3.7 3.2 177.7 154.6c4 3.4 9.1 5.3 14.3 5.3 6.4 0 12.4-2.7 16.5-7.5 7.9-9.1 6.9-22.8-2.2-30.7L702.5 540.2l-4.9-4.3 4.9-4.3 204.7-177.9 9.3-8.1V358z" p-id="2689"></path></svg>