<?xml version="1.0" standalone="no"?><!DOCTYPE svg PUBLIC "-//W3C//DTD SVG 1.1//EN" "http://www.w3.org/Graphics/SVG/1.1/DTD/svg11.dtd"><svg t="1543477571690" class="icon" style="" viewBox="0 0 1024 1024" version="1.1" xmlns="http://www.w3.org/2000/svg" p-id="1532" xmlns:xlink="http://www.w3.org/1999/xlink" width="200" height="200"><defs><style type="text/css"></style></defs><path d="M517.418667 229.290667a496.128 496.128 0 0 1 318.72 120.064L1024 510.634667c-64.085333 55.04-127.829333 110.378667-192.213333 165.034666a534.442667 534.442667 0 0 1-50.261334 37.077334c-27.989333 18.090667-57.813333 33.322667-88.832 45.397333a499.114667 499.114667 0 0 1-371.584-4.096 494.506667 494.506667 0 0 1-133.248-82.090667L0 510.634667C64.085333 455.637333 127.829333 400.256 192.213333 345.6c4.437333-3.626667 8.874667-7.253333 13.354667-10.794667 26.709333-20.650667 55.125333-38.826667 85.376-53.845333a497.237333 497.237333 0 0 1 226.474667-51.669333z m-10.154667 64a432.341333 432.341333 0 0 0-204.970667 53.973333c-26.026667 14.421333-50.261333 31.530667-72.874666 50.730667l-131.2 112.64c45.056 38.698667 89.898667 77.568 135.168 116.010666a447.232 447.232 0 0 0 47.914666 34.986667 433.493333 433.493333 0 0 0 513.28-38.357333l131.2-112.64c-45.056-38.656-89.898667-77.568-135.168-116.010667a444.416 444.416 0 0 0-86.016-56.32 434.133333 434.133333 0 0 0-197.333333-45.013333z" p-id="1533"></path><path d="M516.010667 356.864a155.776 155.776 0 0 1 66.602666 16.938667 156.672 156.672 0 0 1 67.584 67.584 154.410667 154.410667 0 0 1 15.189334 94.250666 155.434667 155.434667 0 0 1-213.76 119.338667 155.989333 155.989333 0 0 1-79.488-75.733333 153.6 153.6 0 0 1-13.525334-43.605334 154.410667 154.410667 0 0 1 15.189334-94.250666 156.672 156.672 0 0 1 67.584-67.584 155.776 155.776 0 0 1 66.602666-16.938667c4.010667-0.042667 4.010667-0.042667 8.021334 0z m-6.4 64c-13.610667 0.512-26.88 3.669333-39.04 9.898667a92.16 92.16 0 0 0-43.434667 47.829333 91.136 91.136 0 0 0-2.858667 58.368c7.296 25.6 26.026667 47.189333 50.261334 58.197333a91.306667 91.306667 0 0 0 127.189333-99.328 91.776 91.776 0 0 0-44.416-62.933333 92.373333 92.373333 0 0 0-47.701333-12.032z" p-id="1534"></path></svg>