<?xml version="1.0" standalone="no"?><!DOCTYPE svg PUBLIC "-//W3C//DTD SVG 1.1//EN" "http://www.w3.org/Graphics/SVG/1.1/DTD/svg11.dtd"><svg t="1590227742710" class="icon" viewBox="0 0 1024 1024" version="1.1" xmlns="http://www.w3.org/2000/svg" p-id="5142" xmlns:xlink="http://www.w3.org/1999/xlink" width="128" height="128"><defs><style type="text/css"></style></defs><path d="M438.114462 613.927385s173.292308 25.206154 234.968615-306.806154C704.118154 140.209231 619.677538 0.315077 438.114462 0.315077c-186.446769 0-272.856615 139.815385-240.797539 306.806154 63.094154 332.091077 240.797538 306.806154 240.797539 306.806154z m134.459076 78.690461c0-5.828923 0.472615-11.657846 0.945231-17.486769-39.305846-3.938462-83.022769-6.774154-132.962461-6.774154-185.501538 0-294.203077 33.949538-352.019693 59.234462C37.100308 749.883077 0.787692 779.579077 0.787692 860.553846v84.992h739.328A273.801846 273.801846 0 0 1 572.652308 692.617846z m234.496 18.904616c7.798154-9.688615 15.990154-18.432 24.733539-26.230154 7.798154-6.301538 16.068923-12.130462 25.757538-17.408a54.272 54.272 0 0 1 29.617231-6.852923c14.572308 1.024 26.702769 4.883692 36.391385 10.24a71.995077 71.995077 0 0 1 34.973538 51.987692c1.969231 11.027692 2.914462 22.764308 1.969231 34.422154-0.551385 11.657846-2.914462 22.843077-6.301538 33.476923a186.604308 186.604308 0 0 1-12.603077 30.089846 157.380923 157.380923 0 0 1-17.092923 25.757538c-6.301538 7.719385-12.130462 14.966154-18.432 21.346462-9.216 9.688615-19.377231 18.432-29.617231 27.175385-10.24 8.270769-19.849846 15.517538-29.144616 21.346461a236.071385 236.071385 0 0 1-25.206153 14.099692 50.097231 50.097231 0 0 1-17.959385 5.356308 43.323077 43.323077 0 0 1-17.959385-4.883692 159.507692 159.507692 0 0 1-23.788307-14.099692 306.254769 306.254769 0 0 1-27.648-21.267693 481.595077 481.595077 0 0 1-28.672-26.308923c-6.301538-5.828923-12.603077-12.603077-19.928616-20.322461a212.913231 212.913231 0 0 1-19.849846-25.757539 162.028308 162.028308 0 0 1-16.068923-30.089846 101.612308 101.612308 0 0 1-7.246769-34.500923 113.900308 113.900308 0 0 1 3.859692-34.422154c2.914462-10.712615 7.798154-20.48 13.627077-28.672a87.276308 87.276308 0 0 1 53.405538-33.476923 50.018462 50.018462 0 0 1 16.935385-0.472615c5.828923 0.945231 11.185231 2.363077 16.541539 4.332307a66.481231 66.481231 0 0 1 15.517538 7.798154c4.883692 2.914462 9.688615 6.301538 14.099692 9.688616 11.185231 7.798154 20.873846 17.014154 30.089846 27.648z" fill="#999999" p-id="5143"></path></svg>