<?xml version="1.0" standalone="no"?><!DOCTYPE svg PUBLIC "-//W3C//DTD SVG 1.1//EN" "http://www.w3.org/Graphics/SVG/1.1/DTD/svg11.dtd"><svg t="1578296022972" class="icon" viewBox="0 0 1024 1024" version="1.1" xmlns="http://www.w3.org/2000/svg" p-id="7876" xmlns:xlink="http://www.w3.org/1999/xlink" width="128" height="128"><defs><style type="text/css"></style></defs><path d="M1024 512C1024 229.230208 794.769792 0 512 0 229.230208 0 0 229.230208 0 512 0 794.769792 229.230208 1024 512 1024 629.410831 1024 740.826187 984.331046 830.768465 912.686662 841.557579 904.092491 843.33693 888.379234 834.742758 877.590121 826.148587 866.801009 810.43533 865.021658 799.646219 873.615827 718.470035 938.277495 618.001779 974.048781 512 974.048781 256.817504 974.048781 49.951219 767.182496 49.951219 512 49.951219 256.817504 256.817504 49.951219 512 49.951219 767.182496 49.951219 974.048781 256.817504 974.048781 512 974.048781 599.492834 949.714859 683.336764 904.470807 755.960693 897.177109 767.668243 900.755245 783.071797 912.462793 790.365493 924.170342 797.659191 939.573897 794.081058 946.867595 782.373508 997.013826 701.880796 1024 608.898379 1024 512Z" p-id="7877"></path><path d="M337.170731 499.512194C371.654852 499.512194 399.609756 471.557291 399.609756 437.073171 399.609756 402.58905 371.654852 374.634146 337.170731 374.634146 302.686611 374.634146 274.731708 402.58905 274.731708 437.073171 274.731708 471.557291 302.686611 499.512194 337.170731 499.512194ZM711.804879 499.512194C746.288998 499.512194 774.243902 471.557291 774.243902 437.073171 774.243902 402.58905 746.288998 374.634146 711.804879 374.634146 677.320757 374.634146 649.365854 402.58905 649.365854 437.073171 649.365854 471.557291 677.320757 499.512194 711.804879 499.512194Z" p-id="7878"></path><path d="M352.788105 768.770967C396.165222 803.472661 453.151987 824.195121 524.487806 824.195121 595.823622 824.195121 652.810387 803.472661 696.187505 768.770967 722.700531 747.560546 738.882517 725.984565 746.631548 710.486505 752.800254 698.149092 747.799529 683.146916 735.462114 676.978208 723.124702 670.809502 708.122526 675.810227 701.953818 688.147642 701.03616 689.982957 698.492224 694.172969 694.165854 699.941463 686.602473 710.025971 676.927317 720.210345 664.983226 729.765617 630.311565 757.502948 584.273939 774.243902 524.487806 774.243902 464.70167 774.243902 418.664045 757.502948 383.992384 729.765617 372.048292 720.210345 362.373137 710.025971 354.809756 699.941463 350.483386 694.172969 347.93945 689.982957 347.021792 688.147642 340.853084 675.810227 325.850908 670.809502 313.513495 676.978208 301.176081 683.146916 296.175356 698.149092 302.344062 710.486505 310.093092 725.984565 326.275078 747.560546 352.788105 768.770967Z" p-id="7879"></path></svg>