<?xml version="1.0" standalone="no"?><!DOCTYPE svg PUBLIC "-//W3C//DTD SVG 1.1//EN" "http://www.w3.org/Graphics/SVG/1.1/DTD/svg11.dtd"><svg t="1558602458313" class="icon" style="" viewBox="0 0 1024 1024" version="1.1" xmlns="http://www.w3.org/2000/svg" p-id="16299" xmlns:xlink="http://www.w3.org/1999/xlink" width="200" height="200"><defs><style type="text/css"></style></defs><path d="M896 341.333333c0-10.666667-10.666667-21.333333-21.333333-21.333333h-128v-8.533333C746.666667 187.733333 646.4 85.333333 520.533333 85.333333h-17.066666C379.733333 85.333333 277.333333 187.733333 277.333333 311.466667v8.533333H149.333333c-10.666667 0-21.333333 8.533333-21.333333 21.333333l-19.2 518.4v2.133334c4.266667 55.466667 51.2 98.133333 106.666667 98.133333H810.666667c55.466667 0 102.4-42.666667 106.666666-98.133333v-2.133334L896 341.333333z m-85.333333 578.133334H215.466667c-32 0-59.733333-25.6-64-57.6L170.666667 362.666667h106.666666v113.066666c-12.8 6.4-21.333333 21.333333-21.333333 36.266667 0 23.466667 19.2 42.666667 42.666667 42.666667s42.666667-19.2 42.666666-42.666667c0-14.933333-8.533333-29.866667-21.333333-36.266667v-164.266666C320 211.2 403.2 128 503.466667 128h17.066666c100.266667 0 183.466667 83.2 183.466667 183.466667v164.266666c-12.8 8.533333-21.333333 21.333333-21.333333 36.266667 0 23.466667 19.2 42.666667 42.666666 42.666667s42.666667-19.2 42.666667-42.666667c0-14.933333-8.533333-29.866667-21.333333-36.266667V362.666667h106.666666l21.333334 497.066666c-4.266667 34.133333-32 59.733333-64 59.733334z" p-id="16300"></path><path d="M640 320H384c-12.8 0-21.333333 8.533333-21.333333 21.333333s8.533333 21.333333 21.333333 21.333334h256c12.8 0 21.333333-8.533333 21.333333-21.333334s-8.533333-21.333333-21.333333-21.333333z" p-id="16301"></path></svg>