<?xml version="1.0" standalone="no"?><!DOCTYPE svg PUBLIC "-//W3C//DTD SVG 1.1//EN" "http://www.w3.org/Graphics/SVG/1.1/DTD/svg11.dtd"><svg t="1562125450688" class="icon" viewBox="0 0 1024 1024" version="1.1" xmlns="http://www.w3.org/2000/svg" p-id="2286" xmlns:xlink="http://www.w3.org/1999/xlink" width="200" height="200"><defs><style type="text/css"></style></defs><path d="M850.10876 663.827028C837.859021 663.827028 827.96998 673.525451 827.916266 685.369031L827.916266 796.285301C827.916266 820.353159 807.923326 839.955207 783.363248 839.955207L162.242006 839.955207C137.580007 839.955207 117.64216 820.405809 117.64216 796.285301L117.64216 233.618778C117.64216 209.445619 137.580007 189.901621 162.242006 189.901621L783.309533 189.901621C807.864102 189.901621 827.916266 209.445619 827.916266 233.618778L827.916266 350.784214C827.916266 362.845144 837.859021 372.594867 850.10876 372.594867 862.467304 372.594867 872.354968 362.845144 872.354968 350.784214L872.354968 229.205617C872.354968 183.383804 834.565888 146.285714 787.700378 146.285714L157.739601 146.285714C110.991161 146.285714 73.142857 183.383804 73.142857 229.205617L73.142857 800.594512C73.142857 846.520274 110.991161 883.565714 157.739601 883.565714L787.704508 883.565714C834.565888 883.565714 872.360477 846.520274 872.360477 800.594512L872.360477 685.369031C872.301253 673.471451 862.359876 663.827028 850.10876 663.827028L850.10876 663.827028ZM866.2604 403.497792 541.883357 403.497792C498.046537 403.497792 462.451502 436.288022 458.056527 478.069274 457.560697 478.823927 457.232898 479.952528 457.179184 481.892484L457.179184 551.027502C457.179184 596.796665 495.023356 633.894755 541.888867 633.894755L866.314114 633.894755C913.066686 633.894755 950.857143 596.796665 950.857143 551.027502L950.857143 486.412295C950.857143 440.649883 913.007462 403.497792 866.2604 403.497792L866.2604 403.497792ZM906.35784 549.593799C906.35784 574.325859 886.364901 594.565109 861.756617 594.565109L546.332048 594.565109C521.664539 594.565109 501.726693 574.378509 501.726693 549.593799L501.726693 492.086358C501.726693 467.296249 521.610825 447.109648 546.332048 447.109648L861.756617 447.109648C886.311186 447.109648 906.35784 467.296249 906.35784 492.086358L906.35784 549.593799 906.35784 549.593799ZM809.182182 528.489198C809.182182 548.839148 826.033492 565.313238 846.832154 565.313238 867.550932 565.313238 884.402242 548.839148 884.402242 528.489198 884.402242 508.133848 867.550932 491.585507 846.832154 491.585507 826.033492 491.585507 809.182182 508.133848 809.182182 528.489198L809.182182 528.489198Z" p-id="2287"></path></svg>