<?xml version="1.0" standalone="no"?><!DOCTYPE svg PUBLIC "-//W3C//DTD SVG 1.1//EN" "http://www.w3.org/Graphics/SVG/1.1/DTD/svg11.dtd"><svg t="1588934292271" class="icon" viewBox="0 0 1152 1024" version="1.1" xmlns="http://www.w3.org/2000/svg" p-id="2315" xmlns:xlink="http://www.w3.org/1999/xlink" width="144" height="128"><defs><style type="text/css"></style></defs><path d="M128 0h896a128 128 0 0 1 128 128 128 128 0 0 1-128 128H128a128 128 0 0 1-128-128 128 128 0 0 1 128-128z m0 384h896a128 128 0 0 1 128 128 128 128 0 0 1-128 128H128a128 128 0 0 1 0-256z m0 384h896a128 128 0 0 1 128 128 128 128 0 0 1-128 128H128a128 128 0 0 1 0-256z" fill="#95AEC4" p-id="2316"></path></svg>