<?xml version="1.0" standalone="no"?><!DOCTYPE svg PUBLIC "-//W3C//DTD SVG 1.1//EN" "http://www.w3.org/Graphics/SVG/1.1/DTD/svg11.dtd"><svg t="1590227684386" class="icon" viewBox="0 0 1024 1024" version="1.1" xmlns="http://www.w3.org/2000/svg" p-id="3024" xmlns:xlink="http://www.w3.org/1999/xlink" width="128" height="128"><defs><style type="text/css"></style></defs><path d="M634.3 342.3H522.1v158.5h112.3c33.9 0 59-6.1 75.3-18.5 15.9-12.7 23.8-33.2 23.8-61.4 0-27.7-8.2-47.7-24.5-60.1-15.4-12.4-40.3-18.5-74.7-18.5z" fill="#999999" p-id="3025"></path><path d="M512 0C229.2 0 0 229.2 0 512s229.2 512 512 512 512-229.2 512-512S794.8 0 512 0zM352.3 747.8H275V276.2h77.3v471.6z m286.7-181H522.1v181h-77.3V276.2h195.5c114.1 0 171.1 48.2 171.1 144.7-0.1 97.3-57.5 145.9-172.4 145.9z" fill="#999999" p-id="3026"></path></svg>