<?xml version="1.0" standalone="no"?><!DOCTYPE svg PUBLIC "-//W3C//DTD SVG 1.1//EN" "http://www.w3.org/Graphics/SVG/1.1/DTD/svg11.dtd"><svg t="1551866414456" class="icon" style="" viewBox="0 0 1024 1024" version="1.1" xmlns="http://www.w3.org/2000/svg" p-id="15509" xmlns:xlink="http://www.w3.org/1999/xlink" width="200" height="200"><defs><style type="text/css"></style></defs><path d="M974.751 477.654c-4.419-115.075-56.11-233.557-141.825-325.063-42.906-45.806-91.51-82.014-144.461-107.617C632.238 17.786 573.833 4 514.872 4 402.861 4 293.763 53.876 207.674 144.441 126.165 230.189 74.289 344.268 65.263 457.55c-11.047 25.15-16.647 52.14-16.647 80.24 0 82.845 47.964 150.243 106.92 150.243 5.431 0 10.458-0.581 15.1-1.731 30.339 62.805 77.138 115.941 135.576 153.839 61.225 39.704 132.497 60.691 206.111 60.691 73.697 0 145.185-20.984 206.736-60.684 59.168-38.163 106.354-91.623 136.649-154.729 4.165 0.889 8.626 1.341 13.402 1.341 32.689 0 61.044-18.461 82.018-53.42 1.127-1.911 2.197-3.903 3.224-5.951-6.709 118.999-53.409 209.577-136.08 263.103-62.1 40.207-125.058 46.945-135.855 47.826-5.224-3.157-35.552-20.541-69.91-20.541-9.313 0-18.207 1.307-26.434 3.885-47.096 13.475-78.236 44.694-70.903 71.09 0.022 0.082 0.047 0.162 0.074 0.242 5.636 16.91 26.071 27.006 54.663 27.006 14.04 0 29.453-2.512 44.554-7.258 45.582-14.109 65.591-50.272 70.118-64.594 14.861-1.274 76.367-8.806 138.73-49.051 41.225-26.605 74.072-62.032 97.627-105.298 29.248-53.724 44.121-119.69 44.217-196.075C978.654 546.253 974.997 481.701 974.751 477.654zM611.495 1003.234c-14.167 4.452-28.548 6.805-41.588 6.805-23.66 0-40.949-7.689-45.173-20.075-5.505-20.349 23.814-47.221 64.138-58.742 0.042-0.012 0.083-0.024 0.125-0.038 7.278-2.287 15.188-3.446 23.511-3.446 28.04 0 54.03 13.086 62.487 17.804C671.592 955.854 654.289 989.987 611.495 1003.234zM512.324 890.871c-143.011 0-269.854-79.548-332.26-207.948 13.582-6.605 22.907-19.652 28.253-39.388 7.02-25.917 7.008-60.484 6.994-100.51l-0.001-5.235 0.001-5.318c0.002-5.885 0.001-11.637-0.018-17.278 83.867-15.183 157.468-36.91 218.789-64.603 75.697-33.864 126.574-74.737 155.925-103.061 23.547-22.723 37.251-40.961 43.061-49.365l178.371 160.873c-2.114 21.502-2.109 46.388-2.1 72.242l0.001 5.235-0.001 5.235c-0.015 40.026-0.026 74.594 6.994 100.51 5.546 20.473 15.374 33.748 29.793 40.1C784.637 809.171 654.116 890.871 512.324 890.871zM816.327 430.128c-1.398 5.226-2.514 10.862-3.409 16.833L635.437 286.889c-1.101-0.994-2.589-1.442-4.058-1.228-1.468 0.215-2.765 1.075-3.536 2.343-0.135 0.223-13.922 22.667-45.073 52.666-28.744 27.681-78.578 67.643-152.774 100.836-60.179 27.178-132.414 48.555-214.77 63.578-0.283-28.937-1.528-54.176-6.909-74.157-8.091-30.048-25.356-44.655-52.781-44.655-10.703 0-20.503 1.794-30.038 5.561 80.904-163.449 232.362-268.287 389.373-268.287 158.884 0 310.574 105.573 390.703 270.432-11.397-5.911-23.756-8.98-36.464-8.98C841.719 384.998 824.453 399.76 816.327 430.128zM942.569 628.247c-19.058 31.763-44.459 48.551-73.458 48.551-22.895 0-36.207-11.455-43.165-37.142-6.673-24.635-6.661-58.589-6.648-97.903l0.001-5.238-0.001-5.239c-0.014-37.86-0.025-73.62 6.652-98.574 6.984-26.103 20.295-37.744 43.161-37.744 16.25 0 31.904 5.78 45.267 16.714 1.787 1.463 4.346 1.503 6.18 0.101 1.835-1.404 2.463-3.884 1.519-5.992-18.08-40.357-41.148-78.521-68.561-113.431-27.879-35.502-59.564-66.747-94.176-92.864-74.473-56.197-159.01-85.901-244.468-85.901-84.223 0-167.814 29.147-241.739 84.292-34.359 25.63-65.928 56.319-93.832 91.213-27.415 34.283-50.65 71.81-69.06 111.537-0.92 1.984-0.437 4.336 1.19 5.798s4.016 1.69 5.892 0.567c12.4-7.441 24.186-10.759 38.213-10.759 22.908 0 36.22 11.499 43.164 37.284 6.675 24.788 6.663 59.156 6.65 98.953l-0.001 5.321 0.001 5.238c0.014 39.314 0.025 73.267-6.648 97.903-6.958 25.687-20.271 37.142-43.166 37.142-53.463 0-96.959-62.931-96.959-140.283 0-26.989 5.429-52.889 16.136-76.98 0.231-0.518 0.371-1.071 0.414-1.637C91.851 244.166 272.541 13.961 514.872 13.961c247.35 0 441.547 245.039 449.928 464.131 0.001 0.038 0.003 0.077 0.006 0.116C964.868 479.225 970.756 580.452 942.569 628.247z" p-id="15510"></path></svg>