<?xml version="1.0" standalone="no"?><!DOCTYPE svg PUBLIC "-//W3C//DTD SVG 1.1//EN" "http://www.w3.org/Graphics/SVG/1.1/DTD/svg11.dtd"><svg t="1551330296209" class="icon" style="" viewBox="0 0 1024 1024" version="1.1" xmlns="http://www.w3.org/2000/svg" p-id="2128" xmlns:xlink="http://www.w3.org/1999/xlink" width="200" height="200"><defs><style type="text/css"></style></defs><path d="M493.714286 643.108571V621.714286a18.285714 18.285714 0 1 1 36.571428 0v21.394285a54.857143 54.857143 0 1 1-36.571428 0z m-182.857143-185.965714V329.142857a201.142857 201.142857 0 0 1 402.285714 0v128H804.571429a18.285714 18.285714 0 0 1 18.285714 18.285714v402.285715a18.285714 18.285714 0 0 1-18.285714 18.285714H219.428571a18.285714 18.285714 0 0 1-18.285714-18.285714V475.428571a18.285714 18.285714 0 0 1 18.285714-18.285714h91.428572z m365.714286 0V329.142857a164.571429 164.571429 0 1 0-329.142858 0v128h329.142858z m-438.857143 36.571429v365.714285h548.571428v-365.714285h-548.571428z m274.285714 219.428571a18.285714 18.285714 0 1 0 0-36.571428 18.285714 18.285714 0 0 0 0 36.571428z" p-id="2129"></path></svg>