<?xml version="1.0" standalone="no"?><!DOCTYPE svg PUBLIC "-//W3C//DTD SVG 1.1//EN" "http://www.w3.org/Graphics/SVG/1.1/DTD/svg11.dtd"><svg t="1551773211479" class="icon" style="" viewBox="0 0 1024 1024" version="1.1" xmlns="http://www.w3.org/2000/svg" p-id="13988" xmlns:xlink="http://www.w3.org/1999/xlink" width="200" height="200"><defs><style type="text/css"></style></defs><path d="M814.420577 649.150377h-161.17293a29.610593 29.610593 0 0 1-29.589259-29.589259v-161.172931c0-16.319959 13.2693-29.589259 29.589259-29.589259h161.17293c16.319959 0 29.589259 13.2693 29.58926 29.589259v161.172931c0 16.298626-13.2693 29.589259-29.58926 29.589259z m-145.578302-45.183887h129.983675v-129.983675h-129.983675v129.983675zM814.420577 903.464408h-161.17293a29.610593 29.610593 0 0 1-29.589259-29.589259v-161.172931c0-16.319959 13.2693-29.589259 29.589259-29.589259h161.17293c16.319959 0 29.589259 13.2693 29.58926 29.589259v161.172931c0 16.319959-13.2693 29.589259-29.58926 29.589259z m-145.578302-45.183887h129.983675v-129.983675h-129.983675v129.983675zM560.618545 903.464408h-161.17293a29.610593 29.610593 0 0 1-29.58926-29.589259v-161.172931c0-16.319959 13.2693-29.589259 29.58926-29.589259h161.17293c16.319959 0 29.589259 13.2693 29.589259 29.589259v161.172931c0 16.319959-13.2693 29.589259-29.589259 29.589259z m-145.578303-45.183887h129.983675v-129.983675h-129.983675v129.983675z" p-id="13989"></path><path d="M948.03091 323.135192v-0.234666h-0.319999L519.530648 5.589319a27.946597 27.946597 0 0 0-33.514583 0L1.686609 378.196388l34.069248 44.138556 43.007893-32.938584v558.057271A76.458476 76.458476 0 0 0 155.862224 1023.99744h715.624877a76.565142 76.565142 0 0 0 76.543809-76.543809l-0.085333-454.548197a27.925264 27.925264 0 1 0-55.850527 0v115.903711c0 0.319999 0.085333 0.597332 0.085333 0.917331v337.727155a20.693282 20.693282 0 0 1-21.226614 20.117283H155.862224a20.671948 20.671948 0 0 1-21.226614-20.117283V346.644467L502.784023 64.810505l361.983095 265.791335v-0.405332l100.501082 73.386483v0.810665l25.215937 18.517287 31.850587-44.693222-74.303814-55.082529z" p-id="13990"></path></svg>