<?xml version="1.0" standalone="no"?><!DOCTYPE svg PUBLIC "-//W3C//DTD SVG 1.1//EN" "http://www.w3.org/Graphics/SVG/1.1/DTD/svg11.dtd"><svg t="1558949697698" class="icon" style="" viewBox="0 0 1024 1024" version="1.1" xmlns="http://www.w3.org/2000/svg" p-id="2068" xmlns:xlink="http://www.w3.org/1999/xlink" width="200" height="200"><defs><style type="text/css"></style></defs><path d="M601.5 113.9c9.5 0 18.5 3.8 25.4 10.6 6.8 6.8 10.6 15.9 10.6 25.4s-3.8 18.5-10.6 25.4c-6.8 6.8-15.9 10.6-25.4 10.6h-180c-9.5 0-18.5-3.8-25.4-10.6-6.8-6.8-10.6-15.9-10.6-25.4 0-9.5 3.8-18.5 10.6-25.4 6.8-6.8 15.9-10.6 25.4-10.6h180m0-48h-180c-46.2 0-84 37.8-84 84s37.8 84 84 84h180c46.2 0 84-37.8 84-84s-37.8-84-84-84z" p-id="2069"></path><path d="M761.6 959.5H261.3c-68.3 0-123.9-55.6-123.9-124v-580c0-68.4 55.6-124 123.9-124h2c13.3 0 24 10.7 24 24s-10.7 24-24 24h-2c-41.8 0-75.9 34.1-75.9 76v580c0 41.9 34 76 75.9 76h500.3c41.8 0 75.9-34.1 75.9-76v-580c0-41.9-34-76-75.9-76h-1.9c-13.3 0-24-10.7-24-24s10.7-24 24-24h1.9c68.3 0 123.9 55.6 123.9 124v580c0 68.4-55.6 124-123.9 124z" p-id="2070"></path><path d="M511 438.8H278.6c-13.1 0-23.8-10.7-23.8-23.8v-0.3c0-13.1 10.7-23.8 23.8-23.8H511c13.1 0 23.8 10.7 23.8 23.8v0.3c0 13.1-10.7 23.8-23.8 23.8zM651 605.3H278.6c-13.1 0-23.8-10.7-23.8-23.8v-0.3c0-13.1 10.7-23.8 23.8-23.8H651c13.1 0 23.8 10.7 23.8 23.8v0.3c0 13.1-10.7 23.8-23.8 23.8zM651 771.8H278.6c-13.1 0-23.8-10.7-23.8-23.8v-0.3c0-13.1 10.7-23.8 23.8-23.8H651c13.1 0 23.8 10.7 23.8 23.8v0.3c0 13.1-10.7 23.8-23.8 23.8z" p-id="2071"></path></svg>