<?xml version="1.0" standalone="no"?><!DOCTYPE svg PUBLIC "-//W3C//DTD SVG 1.1//EN" "http://www.w3.org/Graphics/SVG/1.1/DTD/svg11.dtd"><svg t="1590227581892" class="icon" viewBox="0 0 1029 1024" version="1.1" xmlns="http://www.w3.org/2000/svg" p-id="2255" xmlns:xlink="http://www.w3.org/1999/xlink" width="128.625" height="128"><defs><style type="text/css"></style></defs><path d="M977.92 906.24H87.04V76.8C87.04 51.2 66.56 30.72 40.96 30.72S0 51.2 0 76.8v870.4c0 25.6 20.48 46.08 46.08 46.08h936.96c25.6 0 46.08-20.48 46.08-46.08s-25.6-40.96-51.2-40.96z" p-id="2256"></path><path d="M215.04 814.08h112.64c20.48 0 40.96-20.48 40.96-40.96v-138.24c0-20.48-20.48-40.96-40.96-40.96H215.04c-20.48 0-40.96 20.48-40.96 40.96v138.24c0 25.6 20.48 40.96 40.96 40.96zM491.52 814.08h112.64c20.48 0 40.96-20.48 40.96-40.96V220.16c0-20.48-20.48-40.96-40.96-40.96H491.52c-20.48 0-40.96 20.48-40.96 40.96v552.96c0 25.6 20.48 40.96 40.96 40.96zM768 814.08h112.64c20.48 0 40.96-20.48 40.96-40.96V460.8c0-20.48-20.48-40.96-40.96-40.96H768c-20.48 0-40.96 20.48-40.96 40.96v312.32c0 25.6 20.48 40.96 40.96 40.96z" p-id="2257"></path></svg>