<?xml version="1.0" standalone="no"?><!DOCTYPE svg PUBLIC "-//W3C//DTD SVG 1.1//EN" "http://www.w3.org/Graphics/SVG/1.1/DTD/svg11.dtd"><svg t="1558602574046" class="icon" style="" viewBox="0 0 1024 1024" version="1.1" xmlns="http://www.w3.org/2000/svg" p-id="16833" xmlns:xlink="http://www.w3.org/1999/xlink" width="200" height="200"><defs><style type="text/css"></style></defs><path d="M194.363198 193.037505c68.007907-68.00586 155.697061-112.116497 252.582669-126.031415C565.381279 50.006927 683.39816 80.179111 779.180644 151.915945 874.981547 223.682455 937.106466 328.448544 954.118931 446.901353c35.126009 244.609067-135.337361 472.103338-379.820562 507.249813-102.519931 14.712073-207.643154-6.767124-296.015877-60.427254-15.117302-9.18929-19.915585-28.881794-10.754948-43.974537 9.253758-14.998599 28.851095-19.935028 43.974537-10.749832 75.700099 46.01194 165.798117 64.407915 253.703189 51.779294C774.723122 860.728426 920.825664 665.689335 890.752742 456.003662c-14.579043-101.527324-67.828828-191.314257-149.95836-252.79961-82.10395-61.515029-183.246511-87.338161-284.748253-72.743768C246.302127 160.519904 100.262006 355.581508 130.385071 565.221132c7.891737 54.890144 26.951839 106.169041 56.712653 152.406109 9.547447 14.897292 5.202489 34.763758-9.570983 44.242643-14.873756 9.576099-34.697243 5.27105-44.243667-9.570983-34.746362-54.06536-57.015551-113.905236-66.270333-177.974437C50.018695 455.885981 80.166319 337.834308 151.976832 242.038522 165.031149 224.546126 179.202916 208.203926 194.363198 193.037505L194.363198 193.037505 194.363198 193.037505 194.363198 193.037505zM194.363198 193.037505" p-id="16834"></path><path d="M552.798706 744.852302 403.237389 744.852302c-73.511247 0-100.193956-65.996087-100.193956-110.352317L303.043433 525.600763l-85.920882 0 299.647591-249.40428 287.202141 250.855328-84.188424 0 0 132.12725c0 38.244023-40.309054 68.795852-44.901653 72.152297-7.749498 5.67321-18.659989 4.002151-24.342408-3.791349-5.668093-7.757684-3.991917-18.640546 3.75758-24.317848l0 0c7.949043-5.867638 30.639834-26.544563 30.639834-44.043099L684.937213 492.203118l26.169009 0L516.22165 321.979202l-202.76096 168.773891 24.435529 0 0 143.747915c0 0.762363 0.74599 75.503625 65.341171 75.503625l149.561317 0c9.099239 0 29.037337-7.312546 29.037337-29.037337l0-79.861886c0-14.053064-15.684214-34.848693-49.368384-34.848693l-60.98291 0c-2.804882 0.264013-18.877953 7.54586-18.877953 33.397644 0 34.983769 2.775206 61.803601 2.814092 62.057381 0.9967 9.581216-5.941316 18.152429-15.509229 19.163455-9.619078 0.918929-18.150382-5.932106-19.162432-15.507182-0.112564-1.168616-2.996241-28.92682-2.996241-65.717747 0-44.523029 31.198559-68.24429 53.731762-68.24429l60.98291 0c52.026934 0 84.22117 36.176944 84.22117 69.700455l0 79.857792C616.688829 720.4311 583.532685 744.852302 552.798706 744.852302L552.798706 744.852302 552.798706 744.852302zM552.798706 744.852302" p-id="16835"></path><path d="M552.798706 751.575424 403.237389 751.575424c-78.440513 0-106.917078-70.013587-106.917078-117.075439l0-102.181217-97.777931 0 318.336232-264.951371 305.005622 266.407536-95.376231 0 0 125.404128c0 41.538045-42.782386 74.008574-47.656393 77.57582-4.157693 3.046383-9.082866 4.65809-14.233166 4.65809-7.687076 0-14.982226-3.698229-19.506263-9.908674-7.837502-10.729365-5.501294-25.853831 5.208629-33.70566 8.726755-6.430456 27.895327-25.109887 27.895327-38.619576L678.216137 485.48102l14.980179 0L516.118296 330.814428l-184.076412 153.219637 12.571317 0 0 150.46592c0 0.155543 0.220011 18.122753 8.027837 35.654035 9.785877 21.986757 26.808576 33.131585 50.595328 33.131585l149.561317 0c4.426823 0 22.319331-3.972475 22.319331-22.319331l0-79.861886c0-9.807367-12.507872-28.124548-42.645263-28.124548l-60.166311 0c-1.87572 0.773619-12.977569 6.250354-12.977569 26.673499 0 34.010605 2.614547 59.804061 2.76088 61.226456l0.013303 0.1361c1.379417 13.237489-8.261151 25.14468-21.487384 26.542516-0.850367 0.082888-1.647523 0.11768-2.433422 0.11768-12.450567 0.005117-22.812565-9.284457-24.112164-21.60711l-0.024559-0.218988c-0.49835-5.03876-3.006474-31.931247-3.006474-66.195631 0-48.91506 35.107589-74.967412 60.444651-74.967412l60.988026 0c56.171324 0 90.939175 39.665395 90.939175 76.41846l0 79.861886C623.411951 724.580606 586.758146 751.575424 552.798706 751.575424L552.798706 751.575424zM235.702722 518.877641l74.059739 0 0 115.622344c0 41.659819 24.89397 103.633289 93.474928 103.633289l149.561317 0c27.495214 0 57.171094-21.86089 57.171094-57.167001l0-79.861886c0-30.284747-29.631878-62.977333-77.502142-62.977333l-60.98291 0c-19.708877 0-47.00864 21.381983-47.00864 61.526285 0 33.628912 2.452865 59.931974 2.942005 64.866357l0.024559 0.200568c0.605797 5.745864 5.819542 10.044774 11.82942 9.460466 5.799076-0.61296 10.07445-5.89936 9.464559-11.771091l0.005117 0c-0.289596-2.742461-2.854001-28.628014-2.854001-62.756299 0-28.817326 18.306948-39.469943 24.975834-40.08495l0.620124-0.029676 60.98291 0c38.263465 0 56.091506 24.800849 56.091506 41.565674l0 79.861886c0 24.39562-21.340027 35.760458-35.760458 35.760458L403.237389 716.726731c-71.238484 0-72.064292-81.407078-72.064292-82.226746L331.173097 497.476215 294.879496 497.476215l221.450624-184.325076 212.6901 185.771007-37.363979 0 0 160.256914c0 20.380166-24.088628 42.606377-33.372062 49.453319-4.757351 3.488451-5.789866 10.190083-2.314719 14.944364 2.037403 2.794649 5.187139 4.394077 8.647961 4.394077 2.275833 0 4.455475-0.714268 6.297426-2.064009 4.318352-3.154853 42.151006-31.821753 42.151006-66.728774L713.065853 520.333806l72.993454 0L516.666788 285.030685 235.702722 518.877641 235.702722 518.877641zM235.702722 518.877641" p-id="16836"></path></svg>