<?xml version="1.0" standalone="no"?><!DOCTYPE svg PUBLIC "-//W3C//DTD SVG 1.1//EN" "http://www.w3.org/Graphics/SVG/1.1/DTD/svg11.dtd"><svg t="1551330411976" class="icon" style="" viewBox="0 0 1024 1024" version="1.1" xmlns="http://www.w3.org/2000/svg" p-id="2861" xmlns:xlink="http://www.w3.org/1999/xlink" width="200" height="200"><defs><style type="text/css"></style></defs><path d="M512 576c-35.346 0-64 28.654-64 64 0 29.82 20.396 54.878 48 61.984L496 768l32 0 0-66.016c27.604-7.106 48-32.164 48-61.984C576 604.654 547.346 576 512 576zM512 672c-17.644 0-32-14.356-32-32s14.356-32 32-32 32 14.356 32 32S529.644 672 512 672z" p-id="2862"></path><path d="M336 448l0-144c0-97.046 78.968-176 176.032-176C609.062 128 688 206.954 688 304l0 16 32 0 0-16c0-114.86-93.124-208-207.968-208C397.124 96 304 189.14 304 304l0 144L192 448l0 480 640 0L832 448 336 448zM800 896 224 896 224 480l576 0L800 896z" p-id="2863"></path></svg>