<?xml version="1.0" standalone="no"?><!DOCTYPE svg PUBLIC "-//W3C//DTD SVG 1.1//EN" "http://www.w3.org/Graphics/SVG/1.1/DTD/svg11.dtd"><svg t="1563276150043" class="icon" viewBox="0 0 1024 1024" version="1.1" xmlns="http://www.w3.org/2000/svg" p-id="2652" xmlns:xlink="http://www.w3.org/1999/xlink" width="200" height="200"><defs><style type="text/css"></style></defs><path d="M907.788 819.637c-21.631-51.141-52.593-97.064-92.025-136.498-39.434-39.433-85.358-70.394-136.498-92.024a427.22 427.22 0 0 0-55.298-19.058c27.979-12.982 53.754-30.915 76.214-53.375 50.238-50.238 77.906-117.033 77.906-188.081s-27.668-137.843-77.906-188.082S583.147 64.613 512.1 64.613 374.257 92.28 324.018 142.519s-77.906 117.034-77.906 188.082 27.667 137.843 77.906 188.081c22.46 22.46 48.236 40.393 76.215 53.375a427.22 427.22 0 0 0-55.298 19.058c-51.14 21.631-97.064 52.592-136.497 92.025-39.433 39.433-70.395 85.356-92.025 136.497-18.872 44.619-29.905 91.571-32.911 139.921h40.106c14.031-202.079 182.91-362.2 388.492-362.2 205.582 0 374.462 160.121 388.494 362.199h40.105c-3.007-48.349-14.039-95.301-32.911-139.92zM286.112 330.601c0-124.61 101.377-225.987 225.987-225.987s225.987 101.377 225.987 225.987S636.71 556.588 512.1 556.588c-124.61 0-225.988-101.378-225.988-225.987z" p-id="2653"></path></svg>