<?xml version="1.0" encoding="UTF-8"?>
<svg width="16px" height="16px" viewBox="0 0 16 16" version="1.1" xmlns="http://www.w3.org/2000/svg" xmlns:xlink="http://www.w3.org/1999/xlink">
  <!-- Generator: Sketch 64 (93537) - https://sketch.com -->
  <title>call</title>
  <desc>Created with Sketch.</desc>
  <g id="Sass" stroke="none" stroke-width="1" fill="none" fill-rule="evenodd">
    <g id="图标" transform="translate(-38.000000, -356.000000)" fill-rule="nonzero">
      <g id="call" transform="translate(38.000000, 356.000000)">
        <rect id="矩形" opacity="0" x="0" y="0" width="16" height="16"></rect>
        <path d="M14.9230769,11.6615385 L13.0461538,10.1538462 C12.6153846,9.81538463 12,9.78461539 11.5692308,10.1230769 L9.96923077,11.2923077 C9.78461538,11.4461538 9.5076923,11.4153846 9.32307692,11.2307692 L6.92307692,9.07692308 L4.76923077,6.67692308 C4.58461538,6.49230769 4.58461538,6.24615384 4.70769231,6.03076923 L5.87692308,4.43076923 C6.21538461,4 6.18461539,3.38461539 5.84615384,2.95384616 L4.33846153,1.07692308 C3.87692306,0.523076922 3.04615384,0.461538469 2.52307692,0.984615391 L0.923076922,2.58461539 C0.676923078,2.83076923 0.553846156,3.16923078 0.553846156,3.50769231 C0.707692312,6.64615384 2.12307692,9.63076923 4.21538461,11.7230769 C6.3076923,13.8153846 9.29230769,15.2307692 12.4307692,15.3846154 C12.7692308,15.4153846 13.1076923,15.2615385 13.3538462,15.0153846 L14.9538462,13.4153846 C15.5384615,12.9538461 15.5076923,12.0923077 14.9230769,11.6615385 Z" id="路径" fill="#FFFFFF"></path>
      </g>
    </g>
  </g>
</svg>
