<?xml version="1.0" encoding="UTF-8"?>
<svg width="16px" height="16px" viewBox="0 0 16 16" version="1.1" xmlns="http://www.w3.org/2000/svg" xmlns:xlink="http://www.w3.org/1999/xlink">
  <!-- Generator: Sketch 64 (93537) - https://sketch.com -->
  <title>reader</title>
  <desc>Created with Sketch.</desc>
  <g id="Sass" stroke="none" stroke-width="1" fill="none" fill-rule="evenodd">
    <g id="图标" transform="translate(-227.000000, -355.000000)" fill="#FFFFFF" fill-rule="nonzero">
      <g id="reader" transform="translate(227.000000, 355.000000)">
        <rect id="矩形" opacity="0" x="0" y="0" width="15.9843902" height="15.9843902"></rect>
        <path d="M10.98924,2.99706544 C10.98924,1.34181117 9.64742879,0 7.99217452,0 C6.33692024,0 4.99510907,1.34181117 4.99510907,2.99706544 C4.99510907,4.65231972 6.33692024,5.99413089 7.99217452,5.99413089 C9.64742879,5.99413089 10.98924,4.65231972 10.98924,2.99706544 Z M7.29254706,7.52700499 C5.44029818,6.39311522 2.44011078,6.0815453 0.93033906,5.99569186 C0.423023298,5.96696997 0,6.35346655 0,6.84142626 L0,13.7971156 C0,14.2444901 0.36183321,14.6175623 0.82700274,14.6416013 C2.19004313,14.7130938 4.94765552,14.9750248 6.85360184,15.9350223 C7.14612792,16.0823781 7.4929758,15.8816371 7.4929758,15.5644477 L7.4929758,7.88477968 C7.4926636,7.73898493 7.42054672,7.60536576 7.29254706,7.52700499 Z M15.05401,5.99569186 C13.5445504,6.08123311 10.5440509,6.39311522 8.69211417,7.52700499 C8.5641145,7.60536576 8.49199761,7.74429223 8.49199761,7.89008698 L8.49199761,15.5635111 C8.49199761,15.8816371 8.83978209,16.0826902 9.13324475,15.9350223 C11.0388789,14.9759614 13.7949303,14.7140304 15.1576585,14.6425379 C15.622828,14.6181867 15.9846612,14.2451145 15.9846612,13.79774 L15.9846612,6.84142626 C15.984349,6.35346655 15.5613257,5.96696997 15.05401,5.99569186 Z" id="形状"></path>
      </g>
    </g>
  </g>
</svg>
