<?xml version="1.0" encoding="UTF-8"?>
<svg width="10px" height="15px" viewBox="0 0 10 15" version="1.1" xmlns="http://www.w3.org/2000/svg" xmlns:xlink="http://www.w3.org/1999/xlink">
  <!-- Generator: Sketch 64 (93537) - https://sketch.com -->
  <title>walk</title>
  <desc>Created with Sketch.</desc>
  <g id="Sass" stroke="none" stroke-width="1" fill="none" fill-rule="evenodd">
    <g id="图标" transform="translate(-199.000000, -356.000000)" fill="#FFFFFF" fill-rule="nonzero">
      <g id="walk" transform="translate(196.000000, 355.000000)">
        <rect id="矩形" opacity="0" x="0" y="0" width="16" height="16"></rect>
        <path d="M5.078,5.808 L7.21466667,4.256 C7.45452409,4.08046989 7.74626578,3.99034212 8.04333333,4 C8.78605261,4.0185211 9.43549834,4.5055385 9.66133333,5.21333333 C9.78533333,5.602 9.89866666,5.86466666 10.0013333,6.00133333 C10.6302923,6.84047099 11.6179813,7.33406845 12.6666667,7.33333333 L12.6666667,8.66666667 C11.2725929,8.66818401 9.95114659,8.0451326 9.06533333,6.96866667 L8.60066667,9.60533333 L9.97466667,10.7586667 L11.4566667,14.8306667 L10.2033333,15.2866667 L8.84333333,11.5506667 L6.58333333,9.654 C6.20560742,9.34898518 6.02352927,8.86276248 6.108,8.38466667 L6.44733333,6.46133333 L5.996,6.78933333 L4.578,8.74133333 L3.49933333,7.95733333 L5.06666667,5.8 L5.078,5.808 Z M9,3.66666667 C8.26362033,3.66666667 7.66666666,3.069713 7.66666666,2.33333334 C7.66666666,1.59695367 8.26362033,1 9,1 C9.73637967,1 10.3333333,1.59695367 10.3333333,2.33333334 C10.3333333,3.069713 9.73637967,3.66666667 9,3.66666667 Z M7.01866667,12.454 L4.876,15.0073333 L3.85466667,14.1506667 L5.83866667,11.7866667 L6.336,10.3333333 L7.53,11.3333333 L7.01866667,12.454 L7.01866667,12.454 Z" id="形状"></path>
      </g>
    </g>
  </g>
</svg>
