<?xml version="1.0" encoding="UTF-8"?>
<svg width="10px" height="10px" viewBox="0 0 10 10" version="1.1" xmlns="http://www.w3.org/2000/svg" xmlns:xlink="http://www.w3.org/1999/xlink">
  <!-- Generator: Sketch 64 (93537) - https://sketch.com -->
  <title>add</title>
  <desc>Created with Sketch.</desc>
  <g id="Sass" stroke="none" stroke-width="1" fill="none" fill-rule="evenodd">
    <g id="图标" transform="translate(-167.000000, -150.000000)" fill-rule="nonzero">
      <g id="add" transform="translate(164.000000, 147.000000)">
        <rect id="矩形" opacity="0" x="0" y="0" width="16" height="16"></rect>
        <path d="M8.33333333,7.66666667 L12.7333333,7.66666667 C12.9333333,7.66666667 13.0666667,7.8 13.0666667,8 C13.0666667,8.2 12.9333333,8.33333333 12.7333333,8.33333333 L8.33333333,8.33333333 L8.33333333,12.7333333 C8.33333333,12.9333333 8.2,13.0666667 8,13.0666667 C7.8,13.0666667 7.66666667,12.9333333 7.66666667,12.7333333 L7.66666667,8.33333333 L3.26666667,8.33333333 C3.06666667,8.33333333 2.93333333,8.2 2.93333333,8 C2.93333333,7.8 3.06666666,7.66666667 3.26666667,7.66666667 L7.66666667,7.66666667 L7.66666667,3.26666667 C7.66666667,3.06666667 7.8,2.93333333 8,2.93333333 C8.2,2.93333333 8.33333333,3.06666666 8.33333333,3.26666667 L8.33333333,7.66666667 Z" id="路径" fill="#FFFFFF"></path>
      </g>
    </g>
  </g>
</svg>
