<?xml version="1.0" encoding="UTF-8"?>
<svg width="16px" height="16px" viewBox="0 0 16 16" version="1.1" xmlns="http://www.w3.org/2000/svg" xmlns:xlink="http://www.w3.org/1999/xlink">
    <!-- Generator: Sketch 64 (93537) - https://sketch.com -->
    <title>bg-history</title>
    <desc>Created with Sketch.</desc>
    <g id="Sass" stroke="none" stroke-width="1" fill="none" fill-rule="evenodd">
        <g id="图标" transform="translate(-329.000000, -79.000000)" fill-rule="nonzero">
            <g id="bg-history" transform="translate(329.000000, 79.000000)">
                <g>
                    <rect id="矩形" opacity="0" x="0" y="0.941176471" width="15.0588235" height="15.0588235"></rect>
                    <path d="M8.47058824,0 C10.4675124,0 12.3826477,0.793275033 13.7946864,2.20531365 C15.206725,3.61735226 16,5.53248761 16,7.52941176 C16,11.6877911 12.6289675,15.0588235 8.47058824,15.0588235 C4.31220894,15.0588235 0.941176471,11.6877911 0.941176471,7.52941176 C0.941176471,3.37103247 4.31220894,0 8.47058824,0 Z M7.52627451,4.29490196 C7.2334553,4.29490196 6.99607843,4.53227883 6.99607843,4.82509804 L6.99607843,4.82509804 L6.99607843,8.35137254 C6.99607843,8.93701096 7.47083217,9.41176471 8.05647059,9.41176471 L8.05647059,9.41176471 L10.7670588,9.41176471 C11.0581454,9.41176471 11.2941177,9.17579243 11.2941177,8.88470588 C11.2941988,8.59845043 11.0657822,8.36446265 10.7796078,8.35764706 L10.7796078,8.35764706 L8.05647059,8.35764706 L8.05647059,4.82509804 C8.05647059,4.53227883 7.81909372,4.29490196 7.52627451,4.29490196 Z" id="形状" fill="#FFFFFF"></path>
                </g>
            </g>
        </g>
    </g>
</svg>
