<?xml version="1.0" encoding="UTF-8"?>
<svg width="11px" height="10px" viewBox="0 0 11 10" version="1.1" xmlns="http://www.w3.org/2000/svg" xmlns:xlink="http://www.w3.org/1999/xlink">
  <!-- Generator: Sketch 64 (93537) - https://sketch.com -->
  <title>close</title>
  <desc>Created with Sketch.</desc>
  <g id="Sass" stroke="none" stroke-width="1" fill="none" fill-rule="evenodd">
    <g id="图标" transform="translate(-288.000000, -82.000000)" fill-rule="nonzero">
      <g id="close" transform="translate(285.000000, 79.000000)">
        <rect id="矩形" opacity="0" x="0" y="0" width="16" height="16"></rect>
        <path d="M8.86097037,7.9834 L12.9735283,3.91940211 C13.1679942,3.72721596 13.1689864,3.41577584 12.9755126,3.22260412 C12.7815428,3.02893961 12.4685121,3.02844683 12.2740462,3.22063298 L8.16049609,7.28512366 L4.08266423,3.22211133 C3.88968654,3.02992518 3.57566372,3.02893961 3.38119777,3.22112576 C3.18722791,3.41331191 3.18673182,3.72524482 3.3802056,3.91841654 L7.45704529,7.98044329 L3.34647171,12.0419773 C3.15200576,12.2341634 3.15101359,12.5456035 3.34448736,12.7387753 C3.43751832,12.8318912 3.56414494,12.8842273 3.69621276,12.8841468 C3.82271485,12.8841468 3.94921693,12.8363467 4.04595382,12.7407464 L8.15751957,8.67822685 L12.2725579,12.7781981 C12.3692948,12.8747839 12.496293,12.9230769 12.6237872,12.9230769 C12.755124,12.9230769 12.88111,12.8713897 12.9740244,12.7791836 C13.1679942,12.5869975 13.1684903,12.2755574 12.9750165,12.0823856 L8.86097037,7.9834 Z" id="路径" fill="#FFFFFF"></path>
      </g>
    </g>
  </g>
</svg>
