<?xml version="1.0" encoding="UTF-8"?>
<svg width="14px" height="14px" viewBox="0 0 14 14" version="1.1" xmlns="http://www.w3.org/2000/svg" xmlns:xlink="http://www.w3.org/1999/xlink">
  <!-- Generator: Sketch 64 (93537) - https://sketch.com -->
  <title>cc-head</title>
  <desc>Created with Sketch.</desc>
  <g id="Sass" stroke="none" stroke-width="1" fill="none" fill-rule="evenodd">
    <g id="图标" transform="translate(-42.000000, -179.000000)" fill-rule="nonzero">
      <g id="cc-head" transform="translate(41.000000, 178.000000)">
        <rect id="矩形" fill="#000000" opacity="0" x="0" y="0" width="16" height="16"></rect>
        <path d="M7.98382697,0.997052 C5.99840508,1.03931134 4.33681164,1.72997908 3.02705966,3.04115409 C1.71733964,4.35229714 1.02737544,6.01566538 0.985180047,8.00326178 C1.02737544,9.99085819 1.71733964,11.6404917 3.02705966,12.9516348 C4.33681164,14.2628258 5.99838909,14.9534935 7.98382697,14.9957529 C9.96980847,14.9534935 11.6171556,14.2628258 12.9268756,12.9516348 C14.18284,11.6938156 14.8690788,10.1250072 14.9603129,8.24458616 L14.9603129,7.76193739 C14.8690788,5.88207594 14.18284,4.31270797 12.9268756,3.05540042 C11.6171556,1.72997908 9.91195969,1.03806419 7.98382697,0.997052 L7.98382697,0.997052 Z M12.2904431,12.1639129 C11.948355,11.9998641 11.579613,11.8219687 11.2103754,11.7809565 C10.2394017,11.6984045 9.63816133,11.5482023 9.40567894,11.3154321 C9.18701119,11.0826939 9.09123613,10.7540687 9.13220036,10.3301002 C9.14604697,10.0701644 9.21417678,9.91943463 9.3647307,9.85074519 C9.51477297,9.78256741 9.67914153,9.39909941 9.84303042,8.71517909 C9.89785725,8.50960647 9.95262012,8.34552572 10.0207339,8.22197748 C10.0893594,8.09892491 10.1984375,7.83900514 10.3351927,7.41452494 C10.4038182,7.11357698 10.4038182,6.93568159 10.3218578,6.89466941 C10.2394177,6.8536732 10.1851345,6.83981059 10.1712879,6.8536732 L10.2394177,6.55221359 C10.2803819,6.36098325 10.3080432,6.12824505 10.3351928,5.86830928 C10.4171052,5.18389331 10.2803659,4.59534834 9.92495889,4.10267438 C9.56956784,3.5961538 8.91353264,3.33623402 7.94255895,3.3085408 C7.08115898,3.32237142 6.63000886,3.66484322 6.12452758,4.08881177 C5.56375578,4.52664292 5.37222164,5.11518788 5.52279156,5.86829328 C5.63238127,6.429177 5.79625416,6.89466939 5.68666445,6.8536572 C5.67334548,6.83981059 5.61853464,6.8536572 5.54992516,6.89465341 C5.48181134,6.93566559 5.46798072,7.11356098 5.52279155,7.41450894 C5.67336145,7.78414633 5.78242352,8.04408209 5.86435197,8.1809493 C5.94680806,8.31784848 6.00109127,8.49574386 6.04205548,8.71516309 C6.17930642,9.38573245 6.31553406,9.75536983 6.46610398,9.82353163 C6.61667389,9.89174138 6.71244897,10.0696368 6.76671617,10.3300842 C6.83534164,10.7540527 6.7533972,11.0826779 6.50706822,11.3154161 C6.26125089,11.5482023 5.67334548,11.6983885 4.74333603,11.7804129 C4.40175962,11.8219687 3.99154175,11.9860015 3.66328431,12.1500662 C2.61086186,11.0555123 1.9952952,9.60464003 1.98148058,8.00305391 C2.02295645,6.30610844 2.61086186,4.89624833 3.74521277,3.76017058 C4.88009131,2.62407684 6.28840048,2.03604353 7.98352319,1.99451969 C9.67914156,2.03604353 11.086987,2.62407684 12.2085146,3.76017058 C13.3433932,4.89624831 13.930771,6.30610844 13.9717192,8.00305391 C13.9584322,9.63182163 13.3428655,11.0826939 12.2904431,12.1639129 L12.2904431,12.1639129 Z" id="形状" fill="#6D7278"></path>
      </g>
    </g>
  </g>
</svg>
