<?xml version="1.0" encoding="UTF-8"?>
<svg width="12px" height="12px" viewBox="0 0 12 12" version="1.1" xmlns="http://www.w3.org/2000/svg" xmlns:xlink="http://www.w3.org/1999/xlink">
  <!-- Generator: Sketch 64 (93537) - https://sketch.com -->
  <title>menu</title>
  <desc>Created with Sketch.</desc>
  <g id="Sass" stroke="none" stroke-width="1" fill="none" fill-rule="evenodd">
    <g id="图标" transform="translate(-41.000000, -84.000000)" fill-rule="nonzero">
      <g id="menu" transform="translate(39.000000, 82.000000)">
        <rect id="矩形" opacity="0" x="0" y="0" width="16" height="16"></rect>
        <path d="M13.2,13.8 L9.2,13.8 C8.9,13.8 8.6,13.5 8.6,13.2 L8.6,9.2 C8.6,8.9 8.9,8.6 9.2,8.6 L13.2,8.6 C13.5,8.6 13.8,8.9 13.8,9.2 L13.8,13.2 C13.8,13.5 13.5,13.8 13.2,13.8 Z M13.2,7.5 L9.2,7.5 C8.9,7.5 8.6,7.2 8.6,6.9 L8.6,2.9 C8.6,2.6 8.9,2.3 9.2,2.3 L13.2,2.3 C13.5,2.3 13.8,2.6 13.8,2.9 L13.8,6.9 C13.8,7.2 13.5,7.5 13.2,7.5 Z M6.8,13.8 L2.8,13.8 C2.5,13.8 2.2,13.5 2.2,13.2 L2.2,9.2 C2.2,8.9 2.5,8.6 2.8,8.6 L6.8,8.6 C7.1,8.6 7.4,8.9 7.4,9.2 L7.4,13.2 C7.5,13.5 7.2,13.8 6.8,13.8 Z M6.8,7.5 L2.8,7.5 C2.5,7.5 2.2,7.2 2.2,6.9 L2.2,2.9 C2.2,2.6 2.5,2.3 2.8,2.3 L6.8,2.3 C7.1,2.3 7.4,2.6 7.4,2.9 L7.4,6.9 C7.5,7.2 7.2,7.5 6.8,7.5 Z" id="形状" fill="#FFFFFF"></path>
      </g>
    </g>
  </g>
</svg>
