<?xml version="1.0" encoding="UTF-8"?>
<svg width="14px" height="14px" viewBox="0 0 14 14" version="1.1" xmlns="http://www.w3.org/2000/svg" xmlns:xlink="http://www.w3.org/1999/xlink">
  <!-- Generator: Sketch 64 (93537) - https://sketch.com -->
  <title>running</title>
  <desc>Created with Sketch.</desc>
  <g id="Sass" stroke="none" stroke-width="1" fill="none" fill-rule="evenodd">
    <g id="图标" transform="translate(-119.000000, -178.000000)" fill-rule="nonzero">
      <g id="running" transform="translate(118.000000, 177.000000)">
        <rect id="矩形" opacity="0" x="0" y="0" width="16" height="16"></rect>
        <path d="M10.2390625,4.4359375 C11.065625,4.4359375 11.7328125,3.76875 11.7328125,2.9421875 C11.7328125,2.115625 11.065625,1.4484375 10.2390625,1.4484375 C9.4125,1.4484375 8.7453125,2.115625 8.7453125,2.9421875 C8.7453125,3.775 9.4125,4.4359375 10.2390625,4.4359375 Z M12.690625,4.0171875 C11.8375,5.215625 10.6875,5.353125 9.4546875,4.6234375 C9.371875,4.575 9,4.36875 8.9171875,4.3203125 C6.934375,3.1421875 4.9515625,3.6046875 3.621875,5.4640625 C3.0578125,6.25625 4.365625,7.00625 4.9234375,6.221875 C5.6125,5.2578125 6.4859375,4.9828125 7.4359375,5.2859375 C6.946875,6.1328125 6.5203125,6.9796875 5.9140625,8.178125 C5.3078125,9.3765625 3.9796875,10.3328125 2.6984375,9.5828125 C1.775,9.0453125 0.9421875,10.3671875 1.865625,10.9109375 C3.6140625,11.9296875 5.6671875,11.303125 6.7125,9.975 C6.746875,9.9953125 6.7875,10.009375 6.8296875,10.0234375 C7.6828125,10.31875 8.80625,11.1109375 9.14375,11.39375 C9.4875,11.6765625 10.0734375,13.1078125 10.4171875,13.825 C10.8375,14.7 12.2078125,14.059375 11.78125,13.184375 C11.3890625,12.365625 10.7203125,10.740625 10.2046875,10.3265625 C9.7921875,9.9953125 8.9859375,9.3828125 8.3046875,9.0328125 C8.765625,8.1375 9.2484375,7.25625 9.75,6.38125 C11.3609375,6.8765625 12.896875,6.2921875 13.9921875,4.7625 C14.55625,3.9828125 13.2484375,3.225 12.690625,4.0171875 L12.690625,4.0171875 Z" id="形状" fill="#FFFFFF"></path>
      </g>
    </g>
  </g>
</svg>
