<?xml version="1.0" encoding="UTF-8"?>
<svg width="16px" height="16px" viewBox="0 0 16 16" version="1.1" xmlns="http://www.w3.org/2000/svg" xmlns:xlink="http://www.w3.org/1999/xlink">
  <!-- Generator: Sketch 64 (93537) - https://sketch.com -->
  <title>search</title>
  <desc>Created with Sketch.</desc>
  <g id="Sass" stroke="none" stroke-width="1" fill="none" fill-rule="evenodd">
    <g id="图标" transform="translate(-42.000000, -147.000000)" fill-rule="nonzero">
      <g id="search" transform="translate(42.000000, 147.000000)">
        <rect id="矩形" opacity="0" x="0" y="0" width="16" height="16"></rect>
        <path d="M15.4904833,14.31865 L12.1316667,10.9598333 C13.0039333,9.83741666 13.52375,8.42706666 13.52375,6.89521666 C13.52375,3.23466666 10.5560833,0.266666656 6.8952,0.266666656 C3.23431667,0.266666656 0.266666672,3.23465 0.266666672,6.8952 C0.266666672,10.5561 3.23433334,13.52375 6.89523334,13.52375 C8.42703334,13.52375 9.83738334,13.0039167 10.9598167,12.13165 L14.3186333,15.4904833 C14.64245,15.8142833 15.167,15.8142833 15.4904833,15.4904833 C15.8142667,15.167 15.8142667,14.6424333 15.4904833,14.31865 L15.4904833,14.31865 Z M1.92403333,6.8952 C1.92403333,4.1497 4.1497,1.92375 6.89521666,1.92375 C9.64069998,1.92375 11.8667,4.1497 11.8667,6.8952 C11.8667,9.64073333 9.64069998,11.8667 6.89521666,11.8667 C4.1497,11.8667 1.92403333,9.64075 1.92403333,6.8952 L1.92403333,6.8952 Z" id="形状" fill="#FFFFFF"></path>
      </g>
    </g>
  </g>
</svg>
