<?xml version="1.0" encoding="UTF-8"?>
<svg width="14px" height="14px" viewBox="0 0 14 14" version="1.1" xmlns="http://www.w3.org/2000/svg" xmlns:xlink="http://www.w3.org/1999/xlink">
  <!-- Generator: Sketch 64 (93537) - https://sketch.com -->
  <title>study</title>
  <desc>Created with Sketch.</desc>
  <g id="Sass" stroke="none" stroke-width="1" fill="none" fill-rule="evenodd">
    <g id="图标" transform="translate(-77.000000, -356.000000)" fill="#FFFFFF" fill-rule="nonzero">
      <g id="study" transform="translate(76.000000, 355.000000)">
        <rect id="矩形" opacity="0" x="0" y="0" width="16" height="16"></rect>
        <path d="M9.87490481,1.00032978 L9.87490481,8.99994603 C9.87490481,9.27607881 10.098753,9.49992705 10.3748858,9.49992705 C10.6510186,9.49992705 10.8748668,9.27607881 10.8748668,8.99994603 L10.8748668,1.00032978 L12.8747749,1.00032978 C13.7031573,1.00032978 14.374702,1.67187447 14.374702,2.50025683 L14.374702,10.9998541 C14.374702,11.8282365 13.7031573,12.4997811 12.8747749,12.4997811 L3.12522509,12.4997811 C2.71102592,12.4997811 2.37525358,12.8355535 2.37525358,13.2497527 C2.37525358,13.6639519 2.71102592,13.9997242 3.12522509,13.9997242 L14.1246955,13.9997242 C14.4008282,13.9997242 14.6246765,14.2235724 14.6246765,14.4997052 C14.6246765,14.775838 14.4008282,14.9996862 14.1246955,14.9996862 L3.12522509,14.9996862 C2.2436468,14.9996862 1.37530755,14.374718 1.37530755,13.4997592 L1.37530755,2.50025683 C1.37530755,1.67187447 2.04685223,1.00032978 2.87523459,1.00032978 L9.87490481,1.00032978 Z" id="路径"></path>
      </g>
    </g>
  </g>
</svg>
