<?xml version="1.0" encoding="UTF-8"?>
<svg width="16px" height="16px" viewBox="0 0 16 16" version="1.1" xmlns="http://www.w3.org/2000/svg" xmlns:xlink="http://www.w3.org/1999/xlink">
  <!-- Generator: Sketch 64 (93537) - https://sketch.com -->
  <title>thinking</title>
  <desc>Created with Sketch.</desc>
  <g id="Sass" stroke="none" stroke-width="1" fill="none" fill-rule="evenodd">
    <g id="图标" transform="translate(-161.000000, -355.000000)" fill="#FFFFFF" fill-rule="nonzero">
      <g id="thinking" transform="translate(161.000000, 355.000000)">
        <rect id="矩形" opacity="0" x="0" y="0" width="16" height="16"></rect>
        <path d="M11.651125,0.7391875 C7.59196875,-1.35065625 1.35559375,1.14878125 2.5691875,6.37953125 L1.9609375,7.11565625 L0.886,9.08371875 L1.93190625,9.91459375 L1.8884375,11.3127188 L2.3063125,11.9111875 C2.3063125,11.9111875 1.808625,13.780875 2.5691875,14.0464375 C3.9880625,14.5414375 5.6590625,14.2973437 5.6590625,14.2973437 L5.7423125,15.9981562 L12.80075,15.9981562 C12.80075,15.9981562 12.1026875,12.4725937 13.163,10.9758437 C14.2237813,9.4781875 17.6839375,3.8449375 11.651125,0.7391875 Z" id="路径"></path>
        <path d="M12.374125,6.333625 C12.374125,8.3585625 10.732875,9.9995625 8.7084375,9.9995625 C6.68375,9.9995625 5.0425,8.3585625 5.0425,6.333625 C5.0425,4.3091875 6.68375,2.66796875 8.7084375,2.66796875 C10.732875,2.66796875 12.374125,4.3091875 12.374125,6.333625 Z" id="路径"></path>
        <path d="M9.04184375,6.312125 L9.04184375,5.66725 L9.70821875,5.66725 C9.89225,5.66725 10.041625,5.517875 10.041625,5.33384375 C10.041625,5.1498125 9.89225,5.00090625 9.70821875,5.00090625 L9.04184375,5.00090625 L9.04184375,4.6675 C9.04184375,4.48346875 8.8925,4.33409375 8.7084375,4.33409375 C8.524375,4.33409375 8.37503125,4.48346875 8.37503125,4.6675 L8.37503125,5.00090625 L8.2083125,5.00090625 C7.63321875,5.00090625 7.4486875,5.2361875 7.39525,5.43390625 C7.2944375,5.806875 7.6151875,6.21840625 8.37503125,6.68896875 L8.37503125,7.333375 L7.70840625,7.333375 C7.524375,7.333375 7.37521875,7.48275 7.37521875,7.66678125 C7.37521875,7.8508125 7.52434375,8.0001875 7.70840625,8.0001875 L8.37503125,8.0001875 C8.37503125,8.18425 8.524375,8.333125 8.7084375,8.333125 C8.8925,8.333125 9.04184375,8.18421875 9.04184375,8.0001875 L9.20834375,8.0001875 C9.783375,8.0001875 9.9679375,7.76440625 10.021125,7.56721875 C10.1221562,7.19425 9.8014375,6.78271875 9.04184375,6.312125 L9.04184375,6.312125 Z M8.37503125,5.8815625 C8.2644375,5.796625 8.18634375,5.72534375 8.134125,5.66921875 C8.15883638,5.66801333 8.18357188,5.66736734 8.2083125,5.66728125 L8.37503125,5.66728125 L8.37503125,5.8815625 L8.37503125,5.8815625 Z M9.20834375,7.333375 L9.04184375,7.333375 L9.04184375,7.1190625 C9.1521875,7.204 9.23028125,7.27578125 9.28253125,7.33140625 C9.2605625,7.33290625 9.23615625,7.333375 9.20834375,7.333375 L9.20834375,7.333375 Z" id="形状"></path>
      </g>
    </g>
  </g>
</svg>
