<?xml version="1.0" encoding="UTF-8"?>
<svg width="15px" height="14px" viewBox="0 0 15 14" version="1.1" xmlns="http://www.w3.org/2000/svg" xmlns:xlink="http://www.w3.org/1999/xlink">
  <!-- Generator: Sketch 64 (93537) - https://sketch.com -->
  <title>time-pm</title>
  <desc>Created with Sketch.</desc>
  <g id="Sass" stroke="none" stroke-width="1" fill="none" fill-rule="evenodd">
    <g id="图标" transform="translate(-244.000000, -148.000000)" fill-rule="nonzero">
      <g id="time-pm" transform="translate(243.000000, 147.000000)">
        <rect id="矩形" opacity="0" x="0" y="0" width="16" height="16"></rect>
        <path d="M8,11.6 C9.9882251,11.6 11.6,9.9882251 11.6,8 C11.6,6.0117749 9.9882251,4.4 8,4.4 C6.0117749,4.4 4.4,6.0117749 4.4,8 C4.4,9.9882251 6.0117749,11.6 8,11.6 L8,11.6 Z M8,12.4 C5.57,12.4 3.6,10.43 3.6,8 C3.6,5.57 5.57,3.6 8,3.6 C10.43,3.6 12.4,5.57 12.4,8 C12.4,10.43 10.43,12.4 8,12.4 Z M8.4,2.8 C8.4,3.0209139 8.2209139,3.2 8,3.2 C7.7790861,3.2 7.6,3.0209139 7.6,2.8 L7.6,1.6 C7.6,1.3790861 7.7790861,1.2 8,1.2 C8.2209139,1.2 8.4,1.3790861 8.4,1.6 L8.4,2.8 Z M12.2828,4.3312 C12.1258484,4.48278888 11.8763661,4.48062095 11.7220726,4.32632743 C11.5677791,4.17203391 11.5656111,3.92255155 11.7172,3.7656 L12.5656,2.9172 C12.6660298,2.81321737 12.8147512,2.77151496 12.9546029,2.80812114 C13.0944547,2.84472731 13.2036727,2.9539453 13.2402789,3.09379707 C13.276885,3.23364884 13.2351826,3.38237021 13.1312,3.4828 L12.2832,4.3312 L12.2828,4.3312 Z M3.7656,4.3312 C3.86602979,4.43518263 4.01475116,4.47688504 4.15460293,4.44027886 C4.2944547,4.40367269 4.40367269,4.2944547 4.44027886,4.15460293 C4.47688504,4.01475116 4.43518263,3.86602979 4.3312,3.7656 L3.4832,2.9172 C3.32701387,2.76090342 3.07369658,2.76081387 2.9174,2.917 C2.76110342,3.07318613 2.76101387,3.32650342 2.9172,3.4828 L3.7656,4.3312 Z" id="形状" fill="#FFFFFF"></path>
        <path d="M8.4,13.2 C8.4,12.9790861 8.2209139,12.8 8,12.8 C7.7790861,12.8 7.6,12.9790861 7.6,13.2 L7.6,14.4 C7.6,14.6209139 7.7790861,14.8 8,14.8 C8.2209139,14.8 8.4,14.6209139 8.4,14.4 L8.4,13.2 L8.4,13.2 Z M12.2828,11.6688 C12.1258484,11.5172111 11.8763661,11.5193791 11.7220726,11.6736726 C11.5677791,11.8279661 11.5656111,12.0774484 11.7172,12.2344 L12.5656,13.0828 C12.6660298,13.1867826 12.8147512,13.228485 12.9546029,13.1918789 C13.0944547,13.1552727 13.2036727,13.0460547 13.2402789,12.9062029 C13.276885,12.7663512 13.2351826,12.6176298 13.1312,12.5172 L12.2832,11.6688 L12.2828,11.6688 Z M3.7656,11.6688 C3.86602979,11.5648174 4.01475116,11.523115 4.15460293,11.5597211 C4.2944547,11.5963273 4.40367269,11.7055453 4.44027886,11.8453971 C4.47688504,11.9852488 4.43518263,12.1339702 4.3312,12.2344 L3.4832,13.0828 C3.32701387,13.2390966 3.07369658,13.2391861 2.9174,13.083 C2.76110342,12.9268139 2.76101387,12.6734966 2.9172,12.5172 L3.7656,11.6688 L3.7656,11.6688 Z" id="形状" fill="#FFFFFF"></path>
        <path d="M2.8,7.6 C3.0209139,7.6 3.2,7.82385763 3.2,8.1 C3.2,8.37614237 3.0209139,8.6 2.8,8.6 L1.6,8.6 C1.3790861,8.6 1.2,8.37614237 1.2,8.1 C1.2,7.82385763 1.3790861,7.6 1.6,7.6 L2.8,7.6 L2.8,7.6 Z M14.8,7.6 C15.0209139,7.6 15.2,7.82385763 15.2,8.1 C15.2,8.37614237 15.0209139,8.6 14.8,8.6 L13.6,8.6 C13.3790861,8.6 13.2,8.37614237 13.2,8.1 C13.2,7.82385763 13.3790861,7.6 13.6,7.6 L14.8,7.6 L14.8,7.6 Z" id="形状" fill="#FFFFFF"></path>
      </g>
    </g>
  </g>
</svg>
