<?xml version="1.0" encoding="UTF-8"?>
<svg width="16px" height="13px" viewBox="0 0 16 13" version="1.1" xmlns="http://www.w3.org/2000/svg" xmlns:xlink="http://www.w3.org/1999/xlink">
  <!-- Generator: Sketch 64 (93537) - https://sketch.com -->
  <title>time-am</title>
  <desc>Created with Sketch.</desc>
  <g id="Sass" stroke="none" stroke-width="1" fill="none" fill-rule="evenodd">
    <g id="图标" transform="translate(-208.000000, -148.000000)" fill-rule="nonzero">
      <g id="time-am" transform="translate(208.000000, 147.000000)">
        <rect id="矩形" opacity="0" x="0" y="0" width="16" height="16"></rect>
        <path d="M0.5,11 L15.5,11 C15.646,11 15.7658333,11.0468333 15.8595,11.1405 C15.9531667,11.2341667 16,11.354 16,11.5 C16,11.646 15.9531667,11.7658333 15.8595,11.8595 C15.7658333,11.9531667 15.646,12 15.5,12 L0.5,12 C0.354,12 0.234166667,11.9531667 0.1405,11.8595 C0.0468333333,11.7658333 0,11.646 0,11.5 C0,11.354 0.0468333333,11.2341667 0.1405,11.1405 C0.234166667,11.0468333 0.354,11 0.5,11 Z M4.5,13 L11.5,13 C11.8333333,13 12,13.1666667 12,13.5 C12,13.8333333 11.8333333,14 11.5,14 L4.5,14 C4.16666667,14 4,13.8333333 4,13.5 C4,13.1666667 4.16666667,13 4.5,13 Z M2.5,10 C2.54166667,8.43733333 3.07816667,7.1405 4.1095,6.1095 C5.14083333,5.0785 6.43766667,4.542 8,4.5 C9.56266667,4.54166667 10.8595,5.07816667 11.8905,6.1095 C12.9215,7.14083333 13.458,8.43766667 13.5,10 L12.5,10 C12.4686667,8.729 12.0285,7.66916667 11.1795,6.8205 C10.3305,5.97183333 9.27066667,5.53166667 8,5.5 C6.729,5.53133333 5.66916667,5.9715 4.8205,6.8205 C3.97183333,7.6695 3.53166667,8.72933333 3.5,10 L2.5,10 Z M8,1 C8.146,1 8.26583333,1.04683333 8.3595,1.1405 C8.45316667,1.23416667 8.5,1.354 8.5,1.5 L8.5,3 C8.5,3.146 8.45316667,3.26583333 8.3595,3.3595 C8.26583333,3.45316667 8.146,3.5 8,3.5 C7.854,3.5 7.73416667,3.45316667 7.6405,3.3595 C7.54683333,3.26583333 7.5,3.146 7.5,3 L7.5,1.5 C7.5,1.354 7.54683333,1.23416667 7.6405,1.1405 C7.73416667,1.04683333 7.854,1 8,1 Z M14.3595,3.6405 C14.4638333,3.74483333 14.516,3.862 14.516,3.992 C14.516,4.122 14.4638333,4.23916667 14.3595,4.3435 L13.297,5.406 C13.1616667,5.54133333 13.0028333,5.583 12.8205,5.531 C12.6381667,5.479 12.521,5.36183333 12.469,5.1795 C12.417,4.99716667 12.4586667,4.83833333 12.594,4.703 L13.6565,3.6405 C13.7608333,3.53616667 13.878,3.484 14.008,3.484 C14.138,3.484 14.2551667,3.53616667 14.3595,3.6405 Z M1.6405,3.6405 C1.74483333,3.53616667 1.862,3.484 1.992,3.484 C2.122,3.484 2.23916667,3.53616667 2.3435,3.6405 L3.406,4.703 C3.54133333,4.83833333 3.583,4.99716667 3.531,5.1795 C3.479,5.36183333 3.36183333,5.479 3.1795,5.531 C2.99716667,5.583 2.83833333,5.54133333 2.703,5.406 L1.6405,4.3435 C1.53616667,4.23916667 1.484,4.122 1.484,3.992 C1.484,3.862 1.53616667,3.74483333 1.6405,3.6405 L1.6405,3.6405 Z" id="形状" fill="#FFFFFF"></path>
      </g>
    </g>
  </g>
</svg>
