<?xml version="1.0" encoding="UTF-8"?>
<svg width="14px" height="16px" viewBox="0 0 14 16" version="1.1" xmlns="http://www.w3.org/2000/svg" xmlns:xlink="http://www.w3.org/1999/xlink">
  <!-- Generator: Sketch 64 (93537) - https://sketch.com -->
  <title>time-nm-c</title>
  <desc>Created with Sketch.</desc>
  <g id="Sass" stroke="none" stroke-width="1" fill="none" fill-rule="evenodd">
    <g id="图标" transform="translate(-288.000000, -169.000000)" fill-rule="nonzero">
      <g id="time-nm-c" transform="translate(287.000000, 169.000000)">
        <rect id="矩形" opacity="0" x="0" y="0" width="16" height="16"></rect>
        <path d="M11.0065714,3.17857142 L9.48,3.17857142 L9.48,3.14514286 L11.04,1.08942858 C11.1808571,0.908285719 11.2342857,0.794571438 11.2342857,0.674 C11.2342857,0.466571422 11.0737143,0.339428578 10.8525714,0.339428578 L8.70314286,0.339428578 C8.50228572,0.339428578 8.34828572,0.473428578 8.34828572,0.680857141 C8.34828572,0.901714281 8.50228572,1.02914286 8.70314286,1.02914286 L10.1428571,1.02914286 L10.1428571,1.06257142 L8.56257142,3.11171428 C8.422,3.29914286 8.3682857,3.39285714 8.36828572,3.53342858 C8.36828572,3.7277143 8.52257144,3.87485714 8.74342858,3.87485714 L11.0065714,3.87485714 C11.2077143,3.87485714 11.3551429,3.74114286 11.3551429,3.52 C11.3551429,3.31914286 11.2077143,3.17857142 11.0065714,3.17857142 L11.0065714,3.17857142 Z M14.1408571,5.74342858 L13.0625714,5.74342858 L13.0625714,5.71657142 L14.174,4.26342858 C14.3011429,4.08914286 14.3548571,3.98885716 14.3548571,3.86828572 C14.3548571,3.674 14.2008571,3.54685714 13.9934286,3.54685714 L12.3525714,3.54685714 C12.1651428,3.54685714 12.0245714,3.68085714 12.0245714,3.87514286 C12.0245714,4.08257144 12.1651428,4.20971428 12.3525714,4.20971428 L13.3237143,4.20971428 L13.3237143,4.23657142 L12.2188571,5.68314286 C12.0914286,5.84371428 12.0445714,5.95085714 12.0445714,6.08485714 C12.0445714,6.26571428 12.1851428,6.40628572 12.3931429,6.40628572 L14.1405714,6.40628572 C14.3348571,6.40628572 14.4688571,6.27914286 14.4688571,6.07142858 C14.4688571,5.87714286 14.3348571,5.74342858 14.1405714,5.74342858 L14.1408571,5.74342858 Z M7.38371428,15.6605714 C9.83485714,15.6605714 11.8168571,14.4285714 12.7208571,12.3325714 C12.8414286,12.0445714 12.8014286,11.8237143 12.674,11.6897143 C12.5534286,11.576 12.3525714,11.5491429 12.1117143,11.6428571 C11.6094286,11.8437143 10.9934286,11.9577143 10.2231429,11.9577143 C7.23,11.9577143 5.30142858,10.0891429 5.30142858,7.14942858 C5.30142858,6.33942858 5.45542858,5.5357143 5.66285714,5.11371428 C5.79714286,4.846 5.78342856,4.6182857 5.66971428,4.47771428 C5.5422857,4.3302857 5.31485714,4.28342856 5,4.41057142 C2.94428572,5.24771428 1.53142858,7.39057142 1.53142858,9.89514286 C1.53142858,13.1562857 3.92857144,15.6608571 7.384,15.6608571 L7.38371428,15.6605714 Z M7.39742858,14.6428571 C4.538,14.6428571 2.54885714,12.56 2.54885714,9.81485714 C2.54885714,8.12714286 3.33257142,6.64057142 4.578,5.68971428 C4.41742858,6.12485714 4.32371428,6.79457142 4.32371428,7.43742858 C4.32371428,10.7322857 6.60057142,12.942 9.96885714,12.942 C10.5714286,12.942 11.1202857,12.8682857 11.4017143,12.7677143 C10.5645714,13.9262857 9.07142856,14.6428571 7.39742858,14.6428571 Z M11.1874286,8.03342858 L10.2702857,8.03342858 L10.2702857,8.00657142 L11.2142857,6.75457142 C11.3348571,6.5802857 11.3885714,6.49342856 11.3885714,6.37942858 C11.3885714,6.18514286 11.2411428,6.07142858 11.0468571,6.07142858 L9.60057142,6.07142858 C9.41971428,6.07142858 9.28571428,6.19857144 9.28571428,6.38628572 C9.28571428,6.58057144 9.41971428,6.70085714 9.60057142,6.70085714 L10.404,6.70085714 L10.404,6.72771428 L9.47314286,7.97342858 C9.35257144,8.134 9.30571428,8.2277143 9.30571428,8.35485714 C9.30571428,8.52914286 9.44,8.65628572 9.634,8.65628572 L11.1874286,8.65628572 C11.3682857,8.65628572 11.4954286,8.5357143 11.4954286,8.34142858 C11.4954286,8.154 11.3682857,8.03342858 11.1874286,8.03342858 L11.1874286,8.03342858 Z" id="形状" fill="#FA742B"></path>
      </g>
    </g>
  </g>
</svg>
