<?xml version="1.0" encoding="UTF-8"?>
<svg width="16px" height="14px" viewBox="0 0 16 14" version="1.1" xmlns="http://www.w3.org/2000/svg" xmlns:xlink="http://www.w3.org/1999/xlink">
  <!-- Generator: Sketch 64 (93537) - https://sketch.com -->
  <title>user_group</title>
  <desc>Created with Sketch.</desc>
  <g id="Sass" stroke="none" stroke-width="1" fill="none" fill-rule="evenodd">
    <g id="图标" transform="translate(-123.000000, -84.000000)" fill-rule="nonzero">
      <g id="user_group" transform="translate(115.000000, 76.000000)">
        <rect id="矩形" opacity="0" x="0" y="0" width="16" height="16"></rect>
        <path d="M18.2758556,8.60363704 C18.2758556,8.60363704 17.9051889,8.04697037 17.5338556,8.04697037 C17.1978556,8.04697037 16.8805223,8.07363704 16.3071889,8.60363704 C15.5651889,9.29030371 15.3071889,10.213637 15.3078543,11.7569704 C15.3078543,12.781637 15.5111889,13.8823037 16.4211889,14.3543037 C16.5145223,14.4023037 16.5985223,14.433637 16.6731889,14.451637 C17.1938556,15.5449704 18.0265223,16.2543037 18.9511889,16.2543037 C19.9738556,16.2543037 20.8845223,15.387637 21.3845223,14.0909704 C21.3978556,14.085637 21.4111889,14.079637 21.4238556,14.0729704 C21.8425223,14.1703037 22.4305223,14.201637 22.8371889,14.2109704 C23.0138556,14.2149704 23.1065223,13.999637 22.9945223,13.8643037 C22.7811889,13.6069704 22.5118556,13.2403037 22.3565223,12.8703037 C22.3198556,12.7829704 22.2805223,12.523637 22.2258556,12.1703037 C22.0838556,11.2469704 21.8438556,9.68497037 21.3078543,8.8803037 C20.8251889,8.15697037 19.3078543,7.8803037 18.7565223,8.04697037 C18.3465223,8.17163704 18.2758556,8.60363704 18.2758556,8.60363704 L18.2758556,8.60363704 Z M9.1138556,9.4923037 C9.2538556,9.17763702 9.64518893,9.11563702 9.9338556,9.30363704 L10.3078556,9.54697037 L10.3145223,8.54563704 C10.3124735,8.40966338 10.3996543,8.28836846 10.5291889,8.24697037 C10.8718556,8.1443037 11.2665223,8.09563704 11.7151889,8.09563704 C13.6818556,8.09563704 14.6198556,9.02630371 14.6685223,11.431637 C15.1665223,11.623637 15.2025223,12.239637 15.0198556,12.9303037 C14.8791889,13.4609704 14.5711889,13.8683037 14.2478556,14.0023037 C13.7278556,15.351637 12.7798556,16.2543037 11.7145223,16.2543037 C10.6505223,16.2543037 9.70252226,15.351637 9.1818556,14.0029704 C8.8578556,13.869637 8.5498556,13.4623037 8.40852226,12.9303037 C8.22585559,12.239637 8.26185559,11.6223037 8.7618556,11.4309704 C8.7778556,10.6263037 8.8938556,9.98697037 9.1138556,9.4923037 Z M12.9745223,21.2136271 C13.3425223,21.2136271 13.6351889,20.913637 13.6645223,20.5469704 C13.7325223,19.6763037 13.9645223,19.1149704 14.5111889,18.541637 C14.8425223,18.193637 14.7958556,17.6149704 14.3378556,17.4709704 C13.7886946,17.2993346 13.2165458,17.2125568 12.6411889,17.2136271 C10.6031889,17.2136271 8.84918893,18.277637 8.06252226,19.8063037 C7.70052226,20.5089704 8.99452226,21.2136271 9.78518893,21.2136271 L12.9745223,21.2136271 Z M22.1745223,21.213637 C22.9611889,21.213637 23.5898556,20.5163037 23.2491889,19.8069704 C22.5151889,18.2783037 20.8778556,17.213637 18.9758556,17.213637 C17.0725223,17.213637 15.4358556,18.2783037 14.7011889,19.8069704 C14.3611889,20.5163037 14.9891889,21.213637 15.7758556,21.213637 L22.1745223,21.213637 Z" id="形状" fill="#FFFFFF"></path>
      </g>
    </g>
  </g>
</svg>
