<?xml version="1.0" encoding="UTF-8"?>
<svg width="10px" height="14px" viewBox="0 0 10 14" version="1.1" xmlns="http://www.w3.org/2000/svg" xmlns:xlink="http://www.w3.org/1999/xlink">
  <!-- Generator: Sketch 64 (93537) - https://sketch.com -->
  <title>water</title>
  <desc>Created with Sketch.</desc>
  <g id="Sass" stroke="none" stroke-width="1" fill="none" fill-rule="evenodd">
    <g id="图标" transform="translate(-84.000000, -81.000000)" fill-rule="nonzero">
      <g id="water" transform="translate(81.000000, 80.000000)">
        <rect id="矩形" opacity="0" x="0" y="0" width="16" height="16"></rect>
        <path d="M7.90107692,1.17061539 C7.63323077,1.4719077 7.36541539,1.87366155 6.32781539,3.51378462 C5.82556923,4.35058462 5.39055386,5.12049231 4.98876923,5.89040002 C4.21886155,7.39676925 3.44895384,9.43867694 3.44895384,10.7440923 C3.4824,11.8823385 3.9176,12.8530462 4.788,13.6564 C5.69166153,14.4597846 6.72941539,14.8615385 7.96796923,14.8615385 C9.20652308,14.8615385 10.2776923,14.4597846 11.1479692,13.6229846 C12.0517846,12.7860308 12.4870154,11.8153539 12.4535692,10.6772615 C12.4535385,7.22944616 7.86747692,1.13716923 7.90107692,1.17061539 Z" id="路径" fill="#FFFFFF"></path>
      </g>
    </g>
  </g>
</svg>
