<?xml version="1.0" encoding="UTF-8"?>
<svg width="14px" height="14px" viewBox="0 0 14 14" version="1.1" xmlns="http://www.w3.org/2000/svg" xmlns:xlink="http://www.w3.org/1999/xlink">
  <!-- Generator: Sketch 64 (93537) - https://sketch.com -->
  <title>writer-f</title>
  <desc>Created with Sketch.</desc>
  <g id="Sass" stroke="none" stroke-width="1" fill="none" fill-rule="evenodd">
    <g id="图标" transform="translate(-77.000000, -395.000000)" fill="#FFFFFF" fill-rule="nonzero">
      <g id="writer-f" transform="translate(76.000000, 394.000000)">
        <rect id="矩形" opacity="0" x="0" y="0" width="16" height="16"></rect>
        <path d="M13.3333333,14.6666667 L2.66666667,14.6666667 C1.93333334,14.6666667 1.33333333,14.0666667 1.33333333,13.3333333 L1.33333333,2.66666667 C1.33333333,1.93333334 1.93333333,1.33333333 2.66666667,1.33333333 L13.3333333,1.33333333 C14.0666667,1.33333333 14.6666667,1.93333333 14.6666667,2.66666667 L14.6666667,13.3333333 C14.6666667,14.0666667 14.0666667,14.6666667 13.3333333,14.6666667 L13.3333333,14.6666667 Z M8.33333333,10 L7,11.3333333 L12,11.3333333 L12,10 L8.33333333,10 Z M9.46666667,4.33333333 L9.2,4.4 L4,9.66666667 L4,11.3333333 L5.66666667,11.3333333 L10.9333333,6.06666667 C11,6 11,5.93333334 11,5.8 L10.9333333,5.53333333 L9.73333333,4.33333333 C9.66666666,4.4 9.6,4.33333333 9.46666667,4.33333333 Z" id="形状"></path>
      </g>
    </g>
  </g>
</svg>
