<?xml version="1.0" encoding="UTF-8"?>
<svg width="14px" height="14px" viewBox="0 0 14 14" version="1.1" xmlns="http://www.w3.org/2000/svg" xmlns:xlink="http://www.w3.org/1999/xlink">
  <!-- Generator: Sketch 64 (93537) - https://sketch.com -->
  <title>write</title>
  <desc>Created with Sketch.</desc>
  <g id="Sass" stroke="none" stroke-width="1" fill="none" fill-rule="evenodd">
    <g id="图标" transform="translate(-31.000000, -395.000000)" fill="#FFFFFF" fill-rule="nonzero">
      <g id="write" transform="translate(30.000000, 394.000000)">
        <rect id="矩形" opacity="0" x="0" y="0" width="16" height="16"></rect>
        <path d="M14.35,4.9165 L10.4935,1.1355 C10.3985,1.043 10.2745,1 10.138,0.993 C10.005,0.9945 9.878,1.0485 9.7855,1.1435 L2.6105,8.4935 C2.5415,8.564 2.495,8.654 2.4765,8.7505 L1.5085,13.917 C1.4775,14.0825 1.5315,14.252 1.6525,14.3685 C1.747,14.46 1.872,14.5095 2,14.5095 C2.036,14.5095 2.073,14.5055 2.109,14.4975 L6.6785,13.4785 C6.774,13.4575 6.8615,13.408 6.9295,13.3375 L14.3605,5.621 C14.5505,5.423 14.546,5.1085 14.35,4.9165 Z M6.693,12.5485 C6.5945,12.653 6.462,12.7055 6.329,12.7055 C6.206,12.7055 6.083,12.6605 5.986,12.57 L3.1405,9.892 C2.9395,9.7025 2.93,9.386 3.1195,9.185 C3.309,8.984 3.625,8.9745 3.8265,9.1635 L6.672,11.8415 C6.873,12.031 6.8825,12.347 6.693,12.5485 Z" id="形状"></path>
      </g>
    </g>
  </g>
</svg>
